<svg width="14" height="7" viewBox="0 0 14 7" fill="none" xmlns="http://www.w3.org/2000/svg">
<g id="all-screen-icons">
<path id="Vector" d="M7.08994 5.66009L12.9591 0.450562C13.0161 0.399655 13.084 0.359429 13.1588 0.332266C13.2336 0.305103 13.3137 0.291555 13.3945 0.292426C13.4753 0.293296 13.5551 0.308567 13.6291 0.337333C13.7031 0.366099 13.7699 0.407776 13.8255 0.459895C13.9393 0.566501 14.0019 0.708366 14 0.855343C13.998 1.00232 13.9316 1.14283 13.815 1.247L7.51173 6.84152C7.45518 6.89214 7.38784 6.93222 7.31365 6.95943C7.23946 6.98663 7.15991 7.00042 7.07965 6.99999C6.9994 6.99956 6.92005 6.98491 6.84624 6.9569C6.77243 6.92889 6.70564 6.88808 6.64978 6.83686L0.178538 0.948337C0.0640094 0.842921 0 0.702103 0 0.555562C0 0.40902 0.0640094 0.268202 0.178538 0.162786C0.234816 0.111278 0.302152 0.0703307 0.376556 0.0423691C0.450961 0.0144075 0.530922 0 0.611704 0C0.692486 0 0.772447 0.0144075 0.846852 0.0423691C0.921256 0.0703307 0.988592 0.111278 1.04487 0.162786L7.08994 5.66009Z" fill="#64748B"/>
</g>
</svg>
