<svg width="100" height="100" viewBox="0 0 100 100" fill="none" xmlns="http://www.w3.org/2000/svg">
<g id="Frame" clip-path="url(#clip0_1371_8989)">
<g id="Group">
<path id="Vector" d="M88.4375 50.1565C88.4375 63.9065 85.3125 77.0315 78.9063 89.219C78.5938 89.844 78.2813 90.3128 77.9688 90.9378C77.0313 92.5003 75.625 93.4377 73.9062 92.344C72.1875 91.2502 72.1875 89.6878 72.9687 88.1253C73.4375 87.0315 74.0625 86.094 74.5312 85.0003C79.6875 74.5315 82.5 63.4377 82.6563 54.0627C82.6563 34.3752 70.9375 21.094 55 18.4378C33.2813 14.844 24.0625 32.344 23.4375 33.2815L22.3437 35.0002C19.6875 35.0002 17.1875 35.469 15 36.5627L16.875 32.5002C21.875 22.6565 31.0938 15.3128 42.1875 12.969C65.7812 7.81275 88.2812 25.7815 88.4375 50.1565Z" fill="#353086"/>
<path id="Vector_2" d="M76.5625 52.6563C75.9375 68.5938 70.7812 82.8125 60.9375 95.4688C60.3125 96.4063 59.5312 97.1875 58.75 98.125C57.5 99.6875 55.9375 100.469 54.2188 98.9063C52.5 97.3438 52.9687 95.7813 54.375 94.2188C58.2812 89.5313 61.7188 84.5313 64.375 79.0625C68.5938 70.3125 70.7812 60.9375 70.7812 51.25C70.9375 39.375 62.0312 30 50.625 30H49.0625C42.8125 30.3125 37.1875 33.9063 33.75 39.0625C32.1875 37.8125 30.4688 36.875 28.4375 36.25L28.5937 35.9375C30.3125 33.2813 32.3437 30.7813 35 28.9063C39.5312 25.625 45 23.9063 51.0938 24.0625C66.25 24.375 77.1875 36.7188 76.5625 52.6563Z" fill="#353086"/>
<path id="Vector_3" d="M65 52.3439C64.2187 67.0314 59.2188 79.5314 50.1562 90.1564L47.0313 93.4376V84.3751L50.1562 80.3126C55.7812 71.8751 58.75 62.0314 59.0625 51.0939C59.2188 45.3126 55.625 41.4064 50.625 41.4064H50.4688C46.5625 41.4064 43.2813 44.3751 42.3438 48.1251L41.25 52.8126C40.9375 49.2189 39.8438 45.9376 37.9688 43.1251L38.125 42.8126C40 39.3751 43.125 36.7189 46.875 35.9376H47.0313C53.2813 34.3751 59.6875 37.1876 62.9688 42.8126C64.8438 45.7814 65.3125 48.9064 65 52.3439Z" fill="#353086"/>
<path id="Vector_4" d="M53.4375 51.4063C52.9688 57.6563 51.875 63.2813 49.8438 68.5938L46.875 73.75V71.4062C46.875 69.0625 45.9375 67.0312 44.375 65.625L45.4688 62.5C46.4062 59.2188 47.0312 55.625 47.1875 52.0312V51.7187C47.1875 49.5312 47.5 47.3438 50.3125 47.5C53.2812 47.5 53.4375 49.6875 53.4375 51.4063ZM38.2812 54.2188V63.4375H30.9375V54.2188C30.9375 49.375 27.0312 45.3125 22.1875 45.3125C17.3438 45.3125 13.4375 49.375 13.4375 54.2188V56.5625C13.4375 58.5938 11.875 60.1562 9.84375 60.1562C8.90625 60.1562 7.96875 59.6875 7.1875 59.0625C6.5625 58.4375 6.09375 57.5 6.09375 56.5625V54.2188C6.25 45.3125 13.4375 38.125 22.1875 38.125C31.0938 38.125 38.2812 45.3125 38.2812 54.2188ZM38.9062 66.7188H5.46875C2.8125 66.7188 0.625 68.9062 0.625 71.5625V94.8438C0.625 97.5 2.8125 99.6875 5.46875 99.6875H38.9062C41.5625 99.6875 43.75 97.5 43.75 94.8438V71.5625C43.75 68.9062 41.5625 66.7188 38.9062 66.7188ZM25.9375 88.9062C26.0938 89.6875 25.625 90.3125 24.8438 90.3125H19.8438C19.0625 90.3125 18.5938 89.6875 18.75 88.9062L19.5312 85.3125C19.6875 85 19.5312 84.5313 19.2188 84.2188C18.125 83.2813 17.5 81.7188 17.6562 80C17.9688 77.9688 19.6875 76.25 21.7188 76.0938C24.6875 75.625 27.1875 77.9688 27.1875 80.7812C27.1875 82.1875 26.5625 83.4375 25.625 84.375C25.3125 84.6875 25.1563 85 25.3125 85.4688L25.9375 88.9062Z" fill="#353086"/>
<path id="Vector_5" d="M97.1874 52.9688C94.9999 52.9688 94.3749 51.25 94.0624 49.375C93.7499 46.875 93.7499 44.375 93.2812 41.875C89.2187 20.3125 69.5312 5.00001 47.8124 6.40626C34.2187 7.18751 22.1874 14.2188 14.6874 24.6875C12.9687 27.0313 11.5624 29.5313 10.4687 32.1875C9.21869 35.1563 8.28119 38.2813 7.65619 41.4063C4.84369 44.8438 3.12494 49.375 3.12494 54.2188V56.5625C3.12494 57.0313 3.12494 57.5 3.28119 57.9688H2.49994C0.312443 57.6563 -0.156307 55.7813 0.156193 53.9063C0.624943 50.4688 0.624943 49.2188 0.781193 47.9688C1.24994 37.3438 4.84369 27.6563 11.5624 19.2188C24.3749 3.28126 44.8437 -3.43749 64.3749 2.50001C84.6874 8.75001 96.2499 23.125 99.6874 43.9063C99.8437 45.1563 99.8437 48.75 99.8437 49.2188C100.156 51.4063 99.5312 52.9688 97.1874 52.9688Z" fill="#353086"/>
</g>
</g>
<defs>
<clipPath id="clip0_1371_8989">
<rect width="100" height="100" fill="white"/>
</clipPath>
</defs>
</svg>
