<svg width="18" height="18" viewBox="0 0 18 18" fill="none" xmlns="http://www.w3.org/2000/svg">
<g id="calendar 2" clip-path="url(#clip0_1541_3355)">
<path id="Vector" d="M14.2505 1.5H13.5005V0.75C13.5005 0.551088 13.4215 0.360322 13.2808 0.21967C13.1402 0.0790176 12.9494 0 12.7505 0C12.5516 0 12.3608 0.0790176 12.2202 0.21967C12.0795 0.360322 12.0005 0.551088 12.0005 0.75V1.5H6.00049V0.75C6.00049 0.551088 5.92147 0.360322 5.78082 0.21967C5.64017 0.0790176 5.4494 0 5.25049 0C5.05158 0 4.86081 0.0790176 4.72016 0.21967C4.57951 0.360322 4.50049 0.551088 4.50049 0.75V1.5H3.75049C2.75629 1.50119 1.80316 1.89666 1.10015 2.59966C0.39715 3.30267 0.00167917 4.2558 0.000488281 5.25L0.000488281 14.25C0.00167917 15.2442 0.39715 16.1973 1.10015 16.9003C1.80316 17.6033 2.75629 17.9988 3.75049 18H14.2505C15.2447 17.9988 16.1978 17.6033 16.9008 16.9003C17.6038 16.1973 17.9993 15.2442 18.0005 14.25V5.25C17.9993 4.2558 17.6038 3.30267 16.9008 2.59966C16.1978 1.89666 15.2447 1.50119 14.2505 1.5ZM1.50049 5.25C1.50049 4.65326 1.73754 4.08097 2.1595 3.65901C2.58145 3.23705 3.15375 3 3.75049 3H14.2505C14.8472 3 15.4195 3.23705 15.8415 3.65901C16.2634 4.08097 16.5005 4.65326 16.5005 5.25V6H1.50049V5.25ZM14.2505 16.5H3.75049C3.15375 16.5 2.58145 16.2629 2.1595 15.841C1.73754 15.419 1.50049 14.8467 1.50049 14.25V7.5H16.5005V14.25C16.5005 14.8467 16.2634 15.419 15.8415 15.841C15.4195 16.2629 14.8472 16.5 14.2505 16.5Z" fill="#787486"/>
<path id="Vector_2" d="M9.00049 12.375C9.62181 12.375 10.1255 11.8713 10.1255 11.25C10.1255 10.6287 9.62181 10.125 9.00049 10.125C8.37917 10.125 7.87549 10.6287 7.87549 11.25C7.87549 11.8713 8.37917 12.375 9.00049 12.375Z" fill="#787486"/>
<path id="Vector_3" d="M5.25049 12.375C5.87181 12.375 6.37549 11.8713 6.37549 11.25C6.37549 10.6287 5.87181 10.125 5.25049 10.125C4.62917 10.125 4.12549 10.6287 4.12549 11.25C4.12549 11.8713 4.62917 12.375 5.25049 12.375Z" fill="#787486"/>
<path id="Vector_4" d="M12.7505 12.375C13.3718 12.375 13.8755 11.8713 13.8755 11.25C13.8755 10.6287 13.3718 10.125 12.7505 10.125C12.1292 10.125 11.6255 10.6287 11.6255 11.25C11.6255 11.8713 12.1292 12.375 12.7505 12.375Z" fill="#787486"/>
</g>
<defs>
<clipPath id="clip0_1541_3355">
<rect width="18" height="18" fill="white" transform="translate(0.000488281)"/>
</clipPath>
</defs>
</svg>
