<svg width="21" height="20" viewBox="0 0 21 20" fill="none" xmlns="http://www.w3.org/2000/svg">
<g clip-path="url(#clip0_4381_4871)">
<path d="M0.793915 14.7604V17.6537C0.793915 18.1897 1.27178 18.6258 1.85911 18.6258H5.74964C5.90644 18.6258 6.03353 18.5098 6.03353 18.3668C6.03353 18.2237 5.90644 18.1077 5.74964 18.1077H3.11732V16.802C3.11732 16.6589 2.99023 16.543 2.83343 16.543C2.67662 16.543 2.54954 16.6589 2.54954 16.802V18.1077H1.85907C1.58482 18.1077 1.36169 17.9041 1.36169 17.6537V14.7604C1.36169 13.9615 2.07387 13.3116 2.9492 13.3116H6.99877C7.48462 13.3116 7.93763 13.5116 8.24151 13.8605C8.33909 13.9721 8.51764 13.9911 8.64042 13.902C8.69938 13.8593 8.7373 13.7969 8.74585 13.7286C8.7544 13.6603 8.73288 13.5917 8.68601 13.5379C8.27368 13.0649 7.65878 12.7935 6.99882 12.7935H2.9492C1.76083 12.7935 0.793915 13.6757 0.793915 14.7604ZM4.97456 7.43878C3.62894 7.43878 2.53424 8.43783 2.53424 9.66576C2.53424 10.8937 3.62894 11.8927 4.97456 11.8927C6.32018 11.8927 7.41487 10.8937 7.41487 9.66576C7.41487 8.43783 6.32018 7.43878 4.97456 7.43878ZM4.97456 11.3746C3.94211 11.3746 3.10206 10.6079 3.10206 9.66576C3.10206 8.72361 3.94211 7.95691 4.97456 7.95691C6.00701 7.95691 6.84705 8.72361 6.84705 9.66576C6.84705 10.6079 6.00701 11.3746 4.97456 11.3746ZM20.7939 17.6537V14.7604C20.7939 13.6757 19.8271 12.7935 18.6386 12.7935H14.5891C13.9303 12.7935 13.3147 13.0647 12.9002 13.5373C12.8532 13.5909 12.8314 13.6594 12.8397 13.7277C12.848 13.796 12.8857 13.8584 12.9444 13.9014C13.0032 13.9443 13.0783 13.9641 13.1531 13.9565C13.2279 13.949 13.2964 13.9147 13.3436 13.8611C13.6498 13.5118 14.1038 13.3116 14.5891 13.3116H18.6386C19.514 13.3116 20.2261 13.9615 20.2261 14.7603V17.6537C20.2261 17.904 20.003 18.1077 19.7288 18.1077H19.0383V16.802C19.0383 16.6589 18.9112 16.5429 18.7544 16.5429C18.5976 16.5429 18.4706 16.6589 18.4706 16.802V18.1077H15.8133C15.6565 18.1077 15.5294 18.2236 15.5294 18.3667C15.5294 18.5098 15.6565 18.6258 15.8133 18.6258H19.7288C20.316 18.6258 20.7939 18.1896 20.7939 17.6537ZM16.6133 11.8928C17.9589 11.8928 19.0536 10.8937 19.0536 9.66581C19.0536 8.43787 17.9589 7.43882 16.6133 7.43882C15.2676 7.43882 14.173 8.43787 14.173 9.66581C14.173 10.8937 15.2677 11.8928 16.6133 11.8928ZM16.6133 7.95691C17.6457 7.95691 18.4858 8.72361 18.4858 9.66576C18.4858 10.6079 17.6457 11.3746 16.6133 11.3746C15.5808 11.3746 14.7408 10.6079 14.7408 9.66576C14.7408 8.72361 15.5808 7.95691 16.6133 7.95691ZM10.7808 9.10716C9.43519 9.10716 8.34049 10.1062 8.34049 11.3341C8.34049 12.5621 9.43514 13.5609 10.7808 13.5609C12.1265 13.5609 13.2211 12.5621 13.2211 11.3341C13.2211 10.1062 12.1265 9.10716 10.7808 9.10716ZM10.7808 13.0428C9.74836 13.0428 8.90831 12.2763 8.90831 11.3341C8.90831 10.392 9.74836 9.62528 10.7808 9.62528C11.8133 9.62528 12.6533 10.392 12.6533 11.3341C12.6533 12.2763 11.8133 13.0428 10.7808 13.0428ZM7.58496 2.02458C7.5562 1.94279 7.50278 1.87004 7.43082 1.81467C7.35886 1.7593 7.27127 1.72353 7.17807 1.71148L5.96773 1.55119L5.42643 0.550305C5.42643 0.550105 5.4263 0.550105 5.4263 0.550105C5.34082 0.392012 5.1677 0.293884 4.97451 0.293884C4.78132 0.293884 4.60821 0.392052 4.5226 0.550305L3.9813 1.55119L2.77052 1.71148C2.67738 1.72366 2.58987 1.7595 2.51798 1.8149C2.4461 1.8703 2.39273 1.94303 2.36398 2.02478C2.33464 2.10634 2.33106 2.19379 2.35363 2.27712C2.37621 2.36045 2.42403 2.43629 2.49163 2.49598L3.36749 3.27501L3.16076 4.37526C3.1445 4.45979 3.15467 4.5468 3.19011 4.62631C3.22555 4.70581 3.28483 4.7746 3.36114 4.82477C3.43702 4.87557 3.52705 4.90582 3.62091 4.91205C3.71477 4.91828 3.80865 4.90023 3.89178 4.85998L4.97447 4.34041L6.05729 4.85998C6.1404 4.9002 6.23426 4.91824 6.32809 4.91201C6.42193 4.90579 6.51194 4.87555 6.5878 4.82477C6.74404 4.72116 6.82093 4.54891 6.78818 4.37526L6.58136 3.27501L7.45735 2.49578C7.525 2.43612 7.57285 2.36027 7.59542 2.27693C7.61799 2.19359 7.61437 2.10613 7.58496 2.02458ZM6.16114 2.92526C6.10263 2.9773 6.05887 3.04154 6.03362 3.11245C6.00837 3.18336 6.0024 3.25881 6.01621 3.33229L6.20686 4.34629L5.20909 3.86765C5.13678 3.83295 5.0563 3.81482 4.9746 3.81482C4.8929 3.81482 4.81243 3.83295 4.74012 3.86765L3.74226 4.34633L3.93277 3.33273C3.94666 3.25919 3.94074 3.18367 3.9155 3.11269C3.89027 3.04171 3.84649 2.97739 3.78794 2.9253L2.98072 2.20736L4.09637 2.05963C4.17723 2.04886 4.25402 2.02032 4.3201 1.97646C4.38619 1.9326 4.4396 1.87473 4.47574 1.80785L4.97456 0.885532L5.47338 1.80785C5.50953 1.87475 5.56296 1.93262 5.62907 1.97648C5.69518 2.02034 5.77199 2.04888 5.85287 2.05963L6.96839 2.20736L6.16114 2.92526ZM18.817 1.71148L17.6065 1.55119L17.0652 0.550305C17.0652 0.550105 17.0651 0.550105 17.0651 0.550105C16.9796 0.392012 16.8065 0.293884 16.6133 0.293884C16.4201 0.293884 16.247 0.392052 16.1614 0.550305L15.6201 1.55119L14.4095 1.71148C14.2183 1.737 14.0625 1.85701 14.0028 2.02458C13.9432 2.19216 13.9921 2.37269 14.1303 2.49598L15.0063 3.27501L14.7995 4.37526C14.7833 4.45979 14.7934 4.5468 14.8289 4.62631C14.8643 4.70581 14.9236 4.7746 14.9999 4.82477C15.156 4.92862 15.3595 4.94194 15.5305 4.85998L16.6132 4.34041L17.696 4.85998C17.7792 4.9002 17.873 4.91824 17.9669 4.91201C18.0607 4.90579 18.1507 4.87555 18.2266 4.82477C18.3828 4.72116 18.4597 4.54891 18.4269 4.37526L18.2202 3.27501L19.0961 2.49598C19.1637 2.4363 19.2115 2.36045 19.2341 2.27712C19.2566 2.19379 19.2531 2.10634 19.2237 2.02478C19.1642 1.85721 19.0085 1.7372 18.817 1.71148ZM17.7998 2.92546C17.7413 2.97747 17.6976 3.04168 17.6724 3.11256C17.6472 3.18344 17.6412 3.25885 17.6551 3.33229L17.8456 4.34629L16.8479 3.86761C16.7756 3.83292 16.6951 3.81478 16.6134 3.81477C16.5328 3.81477 16.4522 3.83237 16.3789 3.86761L15.3811 4.34629L15.5717 3.33229C15.5855 3.25881 15.5795 3.18336 15.5543 3.11245C15.529 3.04154 15.4853 2.9773 15.4268 2.92526L14.6194 2.20736L15.7351 2.05963C15.8159 2.04886 15.8927 2.02032 15.9588 1.97646C16.0249 1.9326 16.0783 1.87473 16.1145 1.80785L16.6133 0.885532L17.1121 1.80785C17.1482 1.87475 17.2017 1.93262 17.2678 1.97648C17.3339 2.02034 17.4107 2.04888 17.4916 2.05963L18.6071 2.20736L17.7998 2.92546ZM13.3912 4.61147C13.3624 4.52973 13.309 4.45703 13.2371 4.40169C13.1651 4.34635 13.0776 4.31061 12.9844 4.29857L11.7741 4.13808L11.2328 3.1372C11.2328 3.137 11.2326 3.137 11.2326 3.137C11.1913 3.05986 11.127 2.99492 11.0471 2.9496C10.9672 2.90428 10.8749 2.88043 10.7809 2.88077C10.588 2.88865 10.4143 2.97894 10.3289 3.137L9.78755 4.13808L8.5773 4.29857C8.38599 4.32385 8.2302 4.4439 8.1704 4.61147C8.14094 4.69307 8.13728 4.7806 8.15983 4.86401C8.18239 4.94742 8.23025 5.02335 8.29792 5.08307L9.17379 5.8621L8.96696 6.96215C8.95067 7.04676 8.96084 7.13384 8.99631 7.21342C9.03177 7.293 9.09109 7.36184 9.16747 7.41206C9.32073 7.51347 9.52326 7.53071 9.69812 7.44687L10.7808 6.9273L11.8633 7.44687C11.9464 7.48707 12.0403 7.50513 12.1341 7.49898C12.228 7.49282 12.3181 7.46271 12.3941 7.41206C12.4704 7.36184 12.5298 7.293 12.5652 7.21342C12.6007 7.13384 12.6109 7.04676 12.5946 6.96215L12.3877 5.8621L13.2637 5.08287C13.3314 5.02317 13.3792 4.94727 13.4017 4.8639C13.4243 4.78052 13.4206 4.69304 13.3912 4.61147ZM11.9674 5.51235C11.9089 5.5644 11.8652 5.62865 11.84 5.69955C11.8147 5.77046 11.8087 5.8459 11.8225 5.91938L12.0132 6.93338L11.0147 6.4543C10.9425 6.41973 10.8621 6.40169 10.7805 6.40172C10.6989 6.40176 10.6185 6.41987 10.5463 6.4545L9.54842 6.93338L9.73907 5.91938C9.75283 5.8459 9.74685 5.77047 9.72162 5.69958C9.69639 5.62868 9.65267 5.56443 9.59423 5.51235L8.78701 4.79445L9.90267 4.64648C9.98349 4.63571 10.0602 4.60719 10.1263 4.56336C10.1924 4.51954 10.2458 4.46173 10.2819 4.3949L10.7809 3.47234L11.2797 4.39466C11.3159 4.46156 11.3693 4.51943 11.4354 4.56329C11.5015 4.60715 11.5783 4.63569 11.6592 4.64644L12.7747 4.79441L11.9674 5.51235Z" fill="#353086" stroke="#353086" stroke-width="0.2"/>
<path d="M6.60104 16.4282V19.3215C6.60104 19.8575 7.07878 20.2934 7.66611 20.2934H13.8958C14.4831 20.2934 14.9609 19.8575 14.9609 19.3215V16.4282C14.9609 15.3439 13.9943 14.4619 12.8061 14.4619H8.75581C7.56761 14.4619 6.60104 15.3439 6.60104 16.4282ZM14.3931 16.4282V19.3215C14.3931 19.5717 14.1699 19.7753 13.8958 19.7753H13.2049V18.4694C13.2049 18.3263 13.0778 18.2104 12.921 18.2104C12.7642 18.2104 12.6371 18.3263 12.6371 18.4694V19.7753H8.92475V18.4694C8.92475 18.3263 8.79767 18.2104 8.64086 18.2104C8.48406 18.2104 8.35698 18.3263 8.35698 18.4694V19.7753H7.66606C7.39191 19.7753 7.16878 19.5717 7.16878 19.3215V16.4282C7.16878 15.6297 7.88064 14.98 8.75572 14.98H12.806C13.6812 14.98 14.3931 15.6297 14.3931 16.4282Z" fill="#353086" stroke="#353086" stroke-width="0.2"/>
</g>
<defs>
<clipPath id="clip0_4381_4871">
<rect width="20" height="20" fill="white" transform="translate(0.666626)"/>
</clipPath>
</defs>
</svg>
