<svg width="20" height="20" viewBox="0 0 20 20" fill="none" xmlns="http://www.w3.org/2000/svg">
<g id="Group">
<path id="Vector" d="M0.127441 14.7604V17.6537C0.127441 18.1897 0.605308 18.6258 1.19264 18.6258H5.08317C5.23997 18.6258 5.36705 18.5098 5.36705 18.3668C5.36705 18.2237 5.23997 18.1077 5.08317 18.1077H2.45084V16.802C2.45084 16.6589 2.32376 16.543 2.16696 16.543C2.01015 16.543 1.88307 16.6589 1.88307 16.802V18.1077H1.19259C0.918348 18.1077 0.695218 17.9041 0.695218 17.6537V14.7604C0.695218 13.9615 1.40739 13.3116 2.28273 13.3116H6.3323C6.81814 13.3116 7.27116 13.5116 7.57503 13.8605C7.67261 13.9721 7.85116 13.9911 7.97395 13.902C8.03291 13.8593 8.07083 13.7969 8.07938 13.7286C8.08793 13.6603 8.06641 13.5917 8.01954 13.5379C7.60721 13.0649 6.99231 12.7935 6.33234 12.7935H2.28273C1.09435 12.7935 0.127441 13.6757 0.127441 14.7604ZM4.30808 7.43878C2.96247 7.43878 1.86777 8.43783 1.86777 9.66576C1.86777 10.8937 2.96247 11.8927 4.30808 11.8927C5.6537 11.8927 6.7484 10.8937 6.7484 9.66576C6.7484 8.43783 5.6537 7.43878 4.30808 7.43878ZM4.30808 11.3746C3.27564 11.3746 2.43559 10.6079 2.43559 9.66576C2.43559 8.72361 3.27564 7.95691 4.30808 7.95691C5.34053 7.95691 6.18058 8.72361 6.18058 9.66576C6.18058 10.6079 5.34053 11.3746 4.30808 11.3746ZM20.1274 17.6537V14.7604C20.1274 13.6757 19.1606 12.7935 17.9722 12.7935H13.9226C13.2638 12.7935 12.6482 13.0647 12.2337 13.5373C12.1867 13.5909 12.1649 13.6594 12.1732 13.7277C12.1815 13.796 12.2192 13.8584 12.278 13.9014C12.3368 13.9443 12.4118 13.9641 12.4866 13.9565C12.5615 13.949 12.63 13.9147 12.6771 13.8611C12.9833 13.5118 13.4373 13.3116 13.9226 13.3116H17.9722C18.8475 13.3116 19.5597 13.9615 19.5597 14.7603V17.6537C19.5597 17.904 19.3365 18.1077 19.0623 18.1077H18.3719V16.802C18.3719 16.6589 18.2448 16.5429 18.088 16.5429C17.9312 16.5429 17.8041 16.6589 17.8041 16.802V18.1077H15.1469C14.9901 18.1077 14.863 18.2236 14.863 18.3667C14.863 18.5098 14.9901 18.6258 15.1469 18.6258H19.0623C19.6496 18.6258 20.1274 18.1896 20.1274 17.6537ZM15.9468 11.8928C17.2924 11.8928 18.3871 10.8937 18.3871 9.66581C18.3871 8.43787 17.2925 7.43882 15.9468 7.43882C14.6011 7.43882 13.5065 8.43787 13.5065 9.66581C13.5065 10.8937 14.6012 11.8928 15.9468 11.8928ZM15.9468 7.95691C16.9792 7.95691 17.8193 8.72361 17.8193 9.66576C17.8193 10.6079 16.9792 11.3746 15.9468 11.3746C14.9143 11.3746 14.0743 10.6079 14.0743 9.66576C14.0743 8.72361 14.9143 7.95691 15.9468 7.95691ZM10.1143 9.10716C8.76871 9.10716 7.67402 10.1062 7.67402 11.3341C7.67402 12.5621 8.76867 13.5609 10.1143 13.5609C11.46 13.5609 12.5546 12.5621 12.5546 11.3341C12.5546 10.1062 11.46 9.10716 10.1143 9.10716ZM10.1143 13.0428C9.08189 13.0428 8.24184 12.2763 8.24184 11.3341C8.24184 10.392 9.08189 9.62528 10.1143 9.62528C11.1468 9.62528 11.9868 10.392 11.9868 11.3341C11.9869 12.2763 11.1468 13.0428 10.1143 13.0428ZM6.91849 2.02458C6.88973 1.94279 6.83631 1.87004 6.76435 1.81467C6.69239 1.7593 6.60479 1.72353 6.51159 1.71148L5.30125 1.55119L4.75996 0.550305C4.75996 0.550105 4.75982 0.550105 4.75982 0.550105C4.67434 0.392012 4.50123 0.293884 4.30804 0.293884C4.11485 0.293884 3.94174 0.392052 3.85613 0.550305L3.31483 1.55119L2.10405 1.71148C2.01091 1.72366 1.9234 1.7595 1.85151 1.8149C1.77962 1.8703 1.72626 1.94303 1.69751 2.02478C1.66817 2.10634 1.66458 2.19379 1.68716 2.27712C1.70973 2.36045 1.75756 2.43629 1.82516 2.49598L2.70102 3.27501L2.49429 4.37526C2.47802 4.45979 2.4882 4.5468 2.52364 4.62631C2.55908 4.70581 2.61835 4.7746 2.69467 4.82477C2.77054 4.87557 2.86058 4.90582 2.95444 4.91205C3.0483 4.91828 3.14218 4.90023 3.22531 4.85998L4.308 4.34041L5.39081 4.85998C5.47393 4.9002 5.56779 4.91824 5.66162 4.91201C5.75545 4.90579 5.84546 4.87555 5.92133 4.82477C6.07756 4.72116 6.15445 4.54891 6.12171 4.37526L5.91488 3.27501L6.79088 2.49578C6.85852 2.43612 6.90638 2.36027 6.92895 2.27693C6.95152 2.19359 6.94789 2.10613 6.91849 2.02458ZM5.49466 2.92526C5.43616 2.9773 5.39239 3.04154 5.36715 3.11245C5.3419 3.18336 5.33592 3.25881 5.34974 3.33229L5.54038 4.34629L4.54261 3.86765C4.4703 3.83295 4.38983 3.81482 4.30813 3.81482C4.22643 3.81482 4.14595 3.83295 4.07364 3.86765L3.07578 4.34633L3.2663 3.33273C3.28019 3.25919 3.27426 3.18367 3.24903 3.11269C3.2238 3.04171 3.18001 2.97739 3.12146 2.9253L2.31425 2.20736L3.4299 2.05963C3.51076 2.04886 3.58754 2.02032 3.65363 1.97646C3.71972 1.9326 3.77313 1.87473 3.80926 1.80785L4.30808 0.885532L4.8069 1.80785C4.84305 1.87475 4.89649 1.93262 4.9626 1.97648C5.02871 2.02034 5.10552 2.04888 5.1864 2.05963L6.30192 2.20736L5.49466 2.92526ZM18.1505 1.71148L16.94 1.55119L16.3987 0.550305C16.3987 0.550105 16.3986 0.550105 16.3986 0.550105C16.3131 0.392012 16.14 0.293884 15.9468 0.293884C15.7536 0.293884 15.5805 0.392052 15.4949 0.550305L14.9536 1.55119L13.743 1.71148C13.5519 1.737 13.396 1.85701 13.3364 2.02458C13.2767 2.19216 13.3256 2.37269 13.4639 2.49598L14.3399 3.27501L14.133 4.37526C14.1168 4.45979 14.127 4.5468 14.1624 4.62631C14.1978 4.70581 14.2571 4.7746 14.3334 4.82477C14.4896 4.92862 14.6931 4.94194 14.8641 4.85998L15.9468 4.34041L17.0296 4.85998C17.1127 4.9002 17.2065 4.91824 17.3004 4.91201C17.3942 4.90579 17.4842 4.87555 17.5601 4.82477C17.7163 4.72116 17.7932 4.54891 17.7605 4.37526L17.5537 3.27501L18.4296 2.49598C18.4972 2.4363 18.545 2.36045 18.5676 2.27712C18.5902 2.19379 18.5866 2.10634 18.5572 2.02478C18.4977 1.85721 18.342 1.7372 18.1505 1.71148ZM17.1333 2.92546C17.0749 2.97747 17.0311 3.04168 17.0059 3.11256C16.9807 3.18344 16.9748 3.25885 16.9886 3.33229L17.1791 4.34629L16.1814 3.86761C16.1091 3.83292 16.0286 3.81478 15.9469 3.81477C15.8664 3.81477 15.7857 3.83237 15.7124 3.86761L14.7146 4.34629L14.9052 3.33229C14.919 3.25881 14.9131 3.18336 14.8878 3.11245C14.8626 3.04154 14.8188 2.9773 14.7603 2.92526L13.953 2.20736L15.0686 2.05963C15.1495 2.04886 15.2263 2.02032 15.2923 1.97646C15.3584 1.9326 15.4118 1.87473 15.448 1.80785L15.9468 0.885532L16.4456 1.80785C16.4818 1.87475 16.5352 1.93262 16.6013 1.97648C16.6674 2.02034 16.7442 2.04888 16.8251 2.05963L17.9406 2.20736L17.1333 2.92546ZM12.7247 4.61147C12.6959 4.52973 12.6425 4.45703 12.5706 4.40169C12.4986 4.34635 12.4111 4.31061 12.3179 4.29857L11.1076 4.13808L10.5663 3.1372C10.5663 3.137 10.5662 3.137 10.5662 3.137C10.5248 3.05986 10.4606 2.99492 10.3806 2.9496C10.3007 2.90428 10.2085 2.88043 10.1144 2.88077C9.92154 2.88865 9.74786 2.97894 9.66246 3.137L9.12108 4.13808L7.91082 4.29857C7.71952 4.32385 7.56372 4.4439 7.50393 4.61147C7.47447 4.69307 7.4708 4.7806 7.49336 4.86401C7.51591 4.94742 7.56377 5.02335 7.63145 5.08307L8.50731 5.8621L8.30049 6.96215C8.2842 7.04676 8.29437 7.13384 8.32983 7.21342C8.3653 7.293 8.42462 7.36184 8.501 7.41206C8.65426 7.51347 8.85678 7.53071 9.03165 7.44687L10.1143 6.9273L11.1968 7.44687C11.2799 7.48707 11.3738 7.50513 11.4677 7.49898C11.5615 7.49282 11.6516 7.46271 11.7276 7.41206C11.804 7.36184 11.8633 7.293 11.8987 7.21342C11.9342 7.13384 11.9444 7.04676 11.9281 6.96215L11.7213 5.8621L12.5973 5.08287C12.6649 5.02317 12.7127 4.94727 12.7353 4.8639C12.7578 4.78052 12.7541 4.69304 12.7247 4.61147ZM11.301 5.51235C11.2425 5.5644 11.1987 5.62865 11.1735 5.69955C11.1482 5.77046 11.1422 5.8459 11.156 5.91938L11.3467 6.93338L10.3482 6.4543C10.276 6.41973 10.1956 6.40169 10.114 6.40172C10.0324 6.40176 9.95204 6.41987 9.87981 6.4545L8.88194 6.93338L9.07259 5.91938C9.08636 5.8459 9.08037 5.77047 9.05514 5.69958C9.02991 5.62868 8.9862 5.56443 8.92775 5.51235L8.12054 4.79445L9.23619 4.64648C9.31701 4.63571 9.39376 4.60719 9.45982 4.56336C9.52589 4.51954 9.5793 4.46173 9.61547 4.3949L10.1144 3.47234L10.6132 4.39466C10.6494 4.46156 10.7028 4.51943 10.7689 4.56329C10.835 4.60715 10.9119 4.63569 10.9927 4.64644L12.1083 4.79441L11.301 5.51235Z" fill="#353086" stroke="#353086" stroke-width="0.2"/>
<path id="Vector_2" d="M5.93457 16.4282V19.3215C5.93457 19.8575 6.41231 20.2934 6.99963 20.2934H13.2293C13.8167 20.2934 14.2944 19.8575 14.2944 19.3215V16.4282C14.2944 15.3439 13.3278 14.4619 12.1396 14.4619H8.08933C6.90113 14.4619 5.93457 15.3439 5.93457 16.4282ZM13.7266 16.4282V19.3215C13.7266 19.5717 13.5035 19.7753 13.2293 19.7753H12.5384V18.4694C12.5384 18.3263 12.4113 18.2104 12.2545 18.2104C12.0977 18.2104 11.9706 18.3263 11.9706 18.4694V19.7753H8.25828V18.4694C8.25828 18.3263 8.1312 18.2104 7.97439 18.2104C7.81759 18.2104 7.6905 18.3263 7.6905 18.4694V19.7753H6.99959C6.72543 19.7753 6.5023 19.5717 6.5023 19.3215V16.4282C6.5023 15.6297 7.21417 14.98 8.08924 14.98H12.1396C13.0147 14.98 13.7266 15.6297 13.7266 16.4282Z" fill="#353086" stroke="#353086" stroke-width="0.2"/>
</g>
</svg>
