<svg width="16" height="16" viewBox="0 0 16 16" fill="none" xmlns="http://www.w3.org/2000/svg">
<g id="Group">
<path id="Vector" d="M9.46578 8.13172L15.6959 2.19811C16.1014 1.81215 16.1014 1.18808 15.6959 0.802168C15.2907 0.416205 14.6354 0.416205 14.2302 0.802168L7.9999 6.73573L1.76983 0.802168C1.36437 0.416205 0.70935 0.416205 0.304091 0.802168C-0.101364 1.18813 -0.101364 1.81215 0.304091 2.19811L6.53411 8.13172L0.304139 14.0653C-0.101315 14.4512 -0.101315 15.0753 0.304139 15.4612C0.400269 15.553 0.5145 15.6259 0.640269 15.6755C0.766039 15.7251 0.900867 15.7506 1.03701 15.7505C1.30232 15.7505 1.56773 15.6537 1.76988 15.4612L7.9999 9.52767L14.2302 15.4612C14.3263 15.553 14.4406 15.6258 14.5663 15.6755C14.6921 15.7251 14.8269 15.7506 14.9631 15.7505C15.2284 15.7505 15.4938 15.6537 15.6959 15.4612C16.1014 15.0753 16.1014 14.4512 15.6959 14.0653L9.46578 8.13172Z" fill="black"/>
</g>
</svg>
