<svg width="16" height="4" viewBox="0 0 16 4" fill="none" xmlns="http://www.w3.org/2000/svg">
<g id="menu">
<path id="Vector" d="M8.00044 3.60004C8.88413 3.60004 9.6005 2.88367 9.6005 1.99999C9.6005 1.1163 8.88413 0.399933 8.00044 0.399933C7.11676 0.399933 6.40039 1.1163 6.40039 1.99999C6.40039 2.88367 7.11676 3.60004 8.00044 3.60004Z" fill="#A6A6A6"/>
<path id="Vector_2" d="M1.60005 3.60004C2.48374 3.60004 3.20011 2.88367 3.20011 1.99999C3.20011 1.1163 2.48374 0.399933 1.60005 0.399933C0.716368 0.399933 0 1.1163 0 1.99999C0 2.88367 0.716368 3.60004 1.60005 3.60004Z" fill="#A6A6A6"/>
<path id="Vector_3" d="M14.3999 3.60004C15.2835 3.60004 15.9999 2.88367 15.9999 1.99999C15.9999 1.1163 15.2835 0.399933 14.3999 0.399933C13.5162 0.399933 12.7998 1.1163 12.7998 1.99999C12.7998 2.88367 13.5162 3.60004 14.3999 3.60004Z" fill="#A6A6A6"/>
</g>
</svg>
