<svg width="20" height="20" viewBox="0 0 20 20" fill="none" xmlns="http://www.w3.org/2000/svg">
<g id="Frame" clip-path="url(#clip0_1475_3624)">
<g id="Group">
<path id="Vector" d="M6.85329 19.7555C5.41641 19.7555 3.88891 19.1374 2.86266 18.1974C1.87954 17.2968 1.26829 15.8711 1.22766 14.3855C1.19641 13.2511 1.51891 12.253 2.11204 11.6468L12.7152 1.043C13.3839 0.37632 14.2896 0.00195313 15.2339 0.00195312C16.1782 0.00195313 17.0839 0.37632 17.7527 1.043C18.4241 1.72248 18.8342 2.61708 18.9108 3.56925C18.9864 4.58675 18.6583 5.51675 17.9858 6.18925L8.41579 15.7586C7.99747 16.1762 7.43058 16.4107 6.83954 16.4107C6.2485 16.4107 5.68161 16.1762 5.26329 15.7586C4.84572 15.3402 4.6112 14.7732 4.6112 14.1821C4.6112 13.5909 4.84572 13.0239 5.26329 12.6055L11.3208 6.54738C11.3788 6.48935 11.4477 6.44332 11.5235 6.41191C11.5993 6.38051 11.6806 6.36435 11.7627 6.36435C11.8447 6.36435 11.926 6.38051 12.0018 6.41191C12.0776 6.44332 12.1465 6.48935 12.2045 6.54738C12.2626 6.6054 12.3086 6.67429 12.34 6.75011C12.3714 6.82593 12.3876 6.90719 12.3876 6.98925C12.3876 7.07132 12.3714 7.15258 12.34 7.22839C12.3086 7.30421 12.2626 7.3731 12.2045 7.43113L6.14704 13.4893C5.96396 13.6733 5.86119 13.9224 5.86119 14.1821C5.86119 14.4417 5.96396 14.6908 6.14704 14.8749C6.33095 15.0581 6.57996 15.1609 6.83954 15.1609C7.09912 15.1609 7.34813 15.0581 7.53204 14.8749L17.1008 5.3055C18.0277 4.37863 17.722 2.7805 16.8683 1.92675C16.4342 1.49414 15.8464 1.25122 15.2336 1.25122C14.6208 1.25122 14.033 1.49414 13.5989 1.92675L3.00079 12.5261C2.65329 12.8811 2.45579 13.5655 2.47704 14.3518C2.50829 15.4886 2.98016 16.6093 3.70766 17.2761C4.94891 18.413 7.23704 18.9686 8.46516 18.023L16.1377 10.3511C16.2549 10.2339 16.4138 10.1681 16.5795 10.1681C16.7453 10.1681 16.9042 10.2339 17.0214 10.3511C17.1386 10.4683 17.2044 10.6273 17.2044 10.793C17.2044 10.9587 17.1386 11.1177 17.0214 11.2349L9.32204 18.9336C9.30543 18.9502 9.28791 18.9659 9.26954 18.9805C8.59141 19.5199 7.73954 19.7555 6.85329 19.7555Z" fill="#353086" stroke="#353086" stroke-width="0.2"/>
</g>
</g>
<defs>
<clipPath id="clip0_1475_3624">
<rect width="20" height="20" fill="white"/>
</clipPath>
</defs>
</svg>
