<svg width="16" height="16" viewBox="0 0 16 16" fill="none" xmlns="http://www.w3.org/2000/svg">
<g id="all-screen-icons">
<path id="Vector" d="M5.55562 8.39372C3.62124 6.94702 2.24143 5.35565 1.48775 4.46119C1.25441 4.18429 1.17818 3.98129 1.13229 3.62428C0.97518 2.40159 0.896623 1.79024 1.25519 1.39512C1.61375 1 2.24765 1 3.51546 1H12.485C13.7528 1 14.3867 1 14.7453 1.39434C15.1038 1.78946 15.0253 2.40081 14.8682 3.6235C14.8215 3.98051 14.7453 4.18352 14.5127 4.46041C13.7582 5.35643 12.3761 6.95091 10.4371 8.39994C10.3474 8.46971 10.2733 8.55742 10.2194 8.65747C10.1656 8.75751 10.1332 8.86769 10.1244 8.98096C9.93227 11.1051 9.75493 12.2687 9.64449 12.8567C9.46637 13.8072 8.12001 14.3789 7.39821 14.8883C6.96887 15.1917 6.44775 14.8308 6.39252 14.361C6.186 12.5709 6.01122 10.7773 5.86829 8.98096C5.8603 8.86661 5.82833 8.75523 5.77446 8.65406C5.72059 8.55288 5.64603 8.46418 5.55562 8.39372Z" stroke="#787486" stroke-width="1.7" stroke-linecap="round" stroke-linejoin="round"/>
</g>
</svg>
