<svg width="20" height="20" viewBox="0 0 20 20" fill="none" xmlns="http://www.w3.org/2000/svg">
<g id="Frame" clip-path="url(#clip0_1371_8968)">
<g id="Group">
<path id="Vector" d="M19.2449 8.26113L11.087 8.26074C10.7268 8.26074 10.4348 8.5527 10.4348 8.91293V11.519C10.4348 11.8791 10.7268 12.1712 11.087 12.1712H15.681C15.1779 13.4767 14.239 14.57 13.0411 15.2647L15 18.6557C18.1423 16.8384 20 13.6497 20 10.0803C20 9.57203 19.9625 9.20871 19.8876 8.79961C19.8307 8.48879 19.5608 8.26113 19.2449 8.26113Z" fill="#167EE6"/>
<path id="Vector_2" d="M10.0001 16.0871C7.75186 16.0871 5.7892 14.8587 4.7351 13.041L1.34424 14.9955C3.06982 17.9862 6.3024 20.0001 10.0001 20.0001C11.814 20.0001 13.5256 19.5117 15.0001 18.6606V18.6559L13.0412 15.2649C12.1452 15.7846 11.1083 16.0871 10.0001 16.0871Z" fill="#12B347"/>
<path id="Vector_3" d="M15 18.6603V18.6557L13.0411 15.2646C12.1451 15.7843 11.1083 16.0868 10 16.0868V19.9998C11.8139 19.9998 13.5256 19.5114 15 18.6603Z" fill="#0F993E"/>
<path id="Vector_4" d="M3.91305 10.0002C3.91305 8.89207 4.21547 7.85531 4.73504 6.95934L1.34418 5.00488C0.488359 6.47469 0 8.18164 0 10.0002C0 11.8188 0.488359 13.5258 1.34418 14.9956L4.73504 13.0411C4.21547 12.1452 3.91305 11.1084 3.91305 10.0002Z" fill="#FFD500"/>
<path id="Vector_5" d="M10.0001 3.91305C11.4661 3.91305 12.8128 4.43398 13.8646 5.30051C14.1241 5.51426 14.5012 5.49883 14.7389 5.26113L16.5854 3.41465C16.8551 3.14496 16.8359 2.70352 16.5478 2.45359C14.7855 0.924727 12.4925 0 10.0001 0C6.3024 0 3.06982 2.01395 1.34424 5.00465L4.7351 6.9591C5.7892 5.14141 7.75186 3.91305 10.0001 3.91305Z" fill="#FF4B26"/>
<path id="Vector_6" d="M13.8645 5.30051C14.124 5.51426 14.5012 5.49883 14.7389 5.26113L16.5854 3.41465C16.855 3.14496 16.8358 2.70352 16.5477 2.45359C14.7854 0.924688 12.4925 0 10 0V3.91305C11.466 3.91305 12.8127 4.43398 13.8645 5.30051Z" fill="#D93F21"/>
</g>
</g>
<defs>
<clipPath id="clip0_1371_8968">
<rect width="20" height="20" fill="white"/>
</clipPath>
</defs>
</svg>
