<svg width="20" height="20" viewBox="0 0 20 20" fill="none" xmlns="http://www.w3.org/2000/svg">
<g id="Group">
<path id="Vector" d="M8.39982 0.399902H1.19982C0.987846 0.400472 0.784714 0.484933 0.634823 0.634823C0.484933 0.784714 0.400472 0.987846 0.399902 1.19982V8.39982C0.400724 8.61172 0.485265 8.81471 0.635101 8.96454C0.784938 9.11438 0.987923 9.19892 1.19982 9.19974H8.39982C8.61176 9.19898 8.81481 9.11447 8.9647 8.96463C9.11459 8.81478 9.19916 8.61176 9.19998 8.39982V1.19982C9.19935 0.987824 9.11483 0.784692 8.96491 0.634808C8.81498 0.484924 8.61182 0.400472 8.39982 0.399902ZM7.5999 7.5999H1.99998V1.99998H7.5999V7.5999ZM18.8 0.399902H11.6C11.388 0.400472 11.1848 0.484924 11.0349 0.634808C10.885 0.784692 10.8005 0.987824 10.7998 1.19982V8.39982C10.8006 8.61176 10.8852 8.81478 11.0351 8.96463C11.185 9.11447 11.388 9.19898 11.6 9.19974H18.8C19.0119 9.19892 19.2149 9.11438 19.3647 8.96454C19.5145 8.81471 19.5991 8.61172 19.5999 8.39982V1.19982C19.5993 0.987846 19.5149 0.784714 19.365 0.634823C19.2151 0.484933 19.012 0.400472 18.8 0.399902ZM17.9998 7.5999H12.3999V1.99998H17.9998V7.5999ZM8.39982 10.8001H1.19982C0.987846 10.8006 0.784714 10.8851 0.634823 11.035C0.484933 11.1849 0.400472 11.388 0.399902 11.6V18.8C0.400724 19.0119 0.485265 19.2149 0.635101 19.3647C0.784938 19.5145 0.987923 19.5991 1.19982 19.5999H8.39982C8.61176 19.5991 8.81481 19.5146 8.9647 19.3648C9.11459 19.2149 9.19916 19.0119 9.19998 18.8V11.6C9.19941 11.388 9.11492 11.1848 8.96498 11.0349C8.81503 10.885 8.61184 10.8006 8.39982 10.8001ZM7.5999 18.0001H1.99998V12.3999H7.5999V18.0001ZM18.8 10.8001H11.6C11.388 10.8006 11.1848 10.885 11.0348 11.0349C10.8849 11.1848 10.8004 11.388 10.7998 11.6V18.8C10.8006 19.0119 10.8852 19.2149 11.0351 19.3648C11.185 19.5146 11.388 19.5991 11.6 19.5999H18.8C19.0119 19.5991 19.2149 19.5145 19.3647 19.3647C19.5145 19.2149 19.5991 19.0119 19.5999 18.8V11.6C19.5993 11.388 19.5149 11.1849 19.365 11.035C19.2151 10.8851 19.012 10.8006 18.8 10.8001ZM17.9998 18.0001H12.3999V12.3999H17.9998V18.0001Z" fill="#787486" stroke="white" stroke-width="0.4"/>
</g>
</svg>
