<svg width="16" height="16" viewBox="0 0 16 16" fill="none" xmlns="http://www.w3.org/2000/svg">
<g id="vuesax/outline/message">
<g id="message">
<path id="Vector" d="M7.99992 15.2063C7.53992 15.2063 7.10659 14.973 6.79992 14.5663L5.79992 13.233C5.77992 13.2063 5.69992 13.173 5.66659 13.1663H5.33325C2.55325 13.1663 0.833252 12.413 0.833252 8.66634V5.33301C0.833252 2.38634 2.38659 0.833008 5.33325 0.833008H10.6666C13.6133 0.833008 15.1666 2.38634 15.1666 5.33301V8.66634C15.1666 11.613 13.6133 13.1663 10.6666 13.1663H10.3333C10.2799 13.1663 10.2333 13.193 10.1999 13.233L9.19992 14.5663C8.89325 14.973 8.45992 15.2063 7.99992 15.2063ZM5.33325 1.83301C2.94659 1.83301 1.83325 2.94634 1.83325 5.33301V8.66634C1.83325 11.6797 2.86659 12.1663 5.33325 12.1663H5.66659C6.00659 12.1663 6.39325 12.3597 6.59992 12.633L7.59992 13.9663C7.83325 14.273 8.16659 14.273 8.39992 13.9663L9.39992 12.633C9.61992 12.3397 9.96659 12.1663 10.3333 12.1663H10.6666C13.0533 12.1663 14.1666 11.053 14.1666 8.66634V5.33301C14.1666 2.94634 13.0533 1.83301 10.6666 1.83301H5.33325Z" fill="#787486"/>
<path id="Vector_2" d="M7.99992 8.00033C7.62659 8.00033 7.33325 7.70033 7.33325 7.33366C7.33325 6.96699 7.63325 6.66699 7.99992 6.66699C8.36659 6.66699 8.66659 6.96699 8.66659 7.33366C8.66659 7.70033 8.37325 8.00033 7.99992 8.00033Z" fill="#787486"/>
<path id="Vector_3" d="M10.6667 8.00033C10.2933 8.00033 10 7.70033 10 7.33366C10 6.96699 10.3 6.66699 10.6667 6.66699C11.0333 6.66699 11.3333 6.96699 11.3333 7.33366C11.3333 7.70033 11.04 8.00033 10.6667 8.00033Z" fill="#787486"/>
<path id="Vector_4" d="M5.33341 8.00033C4.96008 8.00033 4.66675 7.70033 4.66675 7.33366C4.66675 6.96699 4.96675 6.66699 5.33341 6.66699C5.70008 6.66699 6.00008 6.96699 6.00008 7.33366C6.00008 7.70033 5.70675 8.00033 5.33341 8.00033Z" fill="#787486"/>
</g>
</g>
</svg>
