<svg width="20" height="20" viewBox="0 0 20 20" fill="none" xmlns="http://www.w3.org/2000/svg">
<g id="Group">
<path id="Vector" d="M16.5827 9.38318V5.19842C16.6502 5.12222 16.6875 5.02392 16.6875 4.92209C16.6875 4.82026 16.6502 4.72195 16.5827 4.64576V1.99972C16.5825 1.90434 16.5497 1.81189 16.4899 1.73764C16.43 1.66339 16.3466 1.61179 16.2534 1.59136L8.33687 -0.0753043C8.32075 -0.0785275 8.30389 -0.0782797 8.28728 -0.0797674C8.27464 -0.0807591 8.26224 -0.0832384 8.2496 -0.0829905C8.23968 -0.0829905 8.22976 -0.080759 8.21985 -0.0800152C8.20125 -0.0787755 8.18241 -0.0785277 8.16357 -0.0745606L0.247239 1.5921C0.153716 1.61179 0.0698074 1.66304 0.00958812 1.73726C-0.0506311 1.81147 -0.083497 1.90414 -0.0834961 1.99972V9.38095C-0.0834961 17.8261 8.06985 19.8855 8.15216 19.9053C8.15712 19.9066 8.16233 19.9061 8.16753 19.9071C8.19481 19.9125 8.22233 19.917 8.24985 19.917C8.28034 19.917 8.31108 19.9125 8.34183 19.9053C8.34455 19.9046 8.34703 19.9048 8.34951 19.9043C8.35398 19.9043 8.35794 19.9004 8.37059 19.9004C8.8538 19.7712 10.1286 19.3752 11.5664 18.471C13.6452 17.1708 15.1036 15.4292 15.9078 13.296C15.9909 13.0793 15.8788 12.8417 15.6661 12.7584C15.6629 12.7572 15.6594 12.7569 15.6562 12.7559C15.4459 12.6838 15.2064 12.7991 15.1286 13.0044C14.9599 13.4543 14.7556 13.8901 14.5177 14.3076L14.516 14.3088C14.446 14.3691 14.3982 14.451 14.3801 14.5416C13.5778 15.8592 12.4344 16.9737 10.9577 17.8628C10.1743 18.3418 9.44511 18.6503 8.97429 18.8293C8.86595 18.867 8.76603 18.9044 8.66587 18.9376V17.7363C9.62386 17.4527 12.4254 16.4188 13.9314 13.709C13.9457 13.6996 13.9604 13.6904 13.974 13.679C14.0717 13.5952 14.1183 13.4762 14.1156 13.3569C14.6037 12.3555 14.9156 11.1428 14.9156 9.67898V5.66629C14.9794 5.61605 15.0271 5.54833 15.053 5.47141C15.0789 5.39449 15.0818 5.31169 15.0614 5.23313C15.0381 5.14597 14.9869 5.06883 14.9156 5.01345V3.66663C14.9157 3.57033 14.8823 3.47699 14.8213 3.40249C14.7603 3.32799 14.6753 3.27694 14.5809 3.25803L8.66587 2.0751V0.8458L15.7489 2.33742V9.38318C15.7489 9.55401 15.7447 9.72063 15.7405 9.87907C15.7321 9.99163 15.774 10.0958 15.8488 10.1793C15.9222 10.2606 16.0234 10.3058 16.1292 10.3117C16.1315 10.3117 16.1339 10.3125 16.1364 10.3127C16.3615 10.3254 16.5614 10.1419 16.5698 9.91279C16.5782 9.74592 16.5827 9.56641 16.5827 9.38318ZM8.66612 16.8713V9.9165C8.66612 9.806 8.62222 9.70002 8.54409 9.62188C8.46595 9.54374 8.35997 9.49984 8.24947 9.49984C8.13897 9.49984 8.033 9.54374 7.95486 9.62188C7.87673 9.70002 7.83283 9.806 7.83283 9.9165V16.8656C6.40502 16.3984 2.41636 14.6482 2.41636 9.67922V4.00805L7.83283 2.92479V4.08318C7.83283 4.19368 7.87673 4.29966 7.95486 4.3778C8.033 4.45594 8.13897 4.49984 8.24947 4.49984C8.35997 4.49984 8.46595 4.45594 8.54409 4.3778C8.62222 4.29966 8.66612 4.19368 8.66612 4.08318V2.92479L14.0826 4.00805V9.67922C14.0826 14.7087 10.1021 16.418 8.66612 16.8713ZM0.749789 2.33791L7.83283 0.846543V2.07485L1.91778 3.25778C1.82333 3.27669 1.73835 3.32773 1.67729 3.40222C1.61622 3.47672 1.58284 3.57006 1.58283 3.66639V9.67922C1.58283 15.4907 6.49799 17.3414 7.83259 17.7363V18.9369C6.12436 18.3483 0.749541 15.9712 0.749541 9.38095V2.33791H0.749789ZM16.3115 11.3166C16.3742 11.4084 16.395 11.5167 16.3742 11.6293C16.356 11.7243 16.3053 11.8099 16.2308 11.8715C16.1562 11.9331 16.0625 11.9668 15.9658 11.9667C15.9408 11.9667 15.9158 11.9625 15.8865 11.9583C15.8838 11.9578 15.8811 11.9566 15.8781 11.9558C15.773 11.9336 15.6805 11.8718 15.6197 11.7833C15.5892 11.7379 15.5679 11.6869 15.5572 11.6332C15.5465 11.5795 15.5465 11.5243 15.5573 11.4706C15.5982 11.2529 15.8176 11.1049 16.0355 11.1408C16.0387 11.1413 16.0417 11.1411 16.0447 11.1416C16.1533 11.1624 16.249 11.2209 16.3115 11.3166ZM16.1868 15.6209C16.2387 15.6814 16.2722 15.7555 16.2832 15.8344C16.2943 15.9133 16.2824 15.9938 16.2491 16.0662C16.2158 16.1386 16.1624 16.1999 16.0953 16.2428C16.0281 16.2858 15.9501 16.3086 15.8704 16.3084C15.8005 16.3084 15.7318 16.2909 15.6705 16.2573C15.6093 16.2238 15.5574 16.1754 15.5197 16.1166C15.482 16.0578 15.4597 15.9904 15.4549 15.9207C15.4501 15.851 15.4629 15.7812 15.4921 15.7178C15.5213 15.6543 15.5659 15.5992 15.622 15.5576C15.6781 15.5159 15.7437 15.489 15.8129 15.4794C15.8821 15.4697 15.9526 15.4776 16.0179 15.5023C16.0832 15.5271 16.1413 15.5679 16.1868 15.6209ZM19.6032 4.48707C19.4961 4.51349 19.3829 4.49688 19.2878 4.44079C19.1928 4.38471 19.1236 4.29362 19.0949 4.18706C19.0812 4.13399 19.078 4.07872 19.0857 4.02443C19.0933 3.97014 19.1116 3.91789 19.1395 3.87067C19.1673 3.82346 19.2043 3.7822 19.2481 3.74928C19.2919 3.71635 19.3418 3.69239 19.3949 3.67878C19.448 3.66504 19.5033 3.6619 19.5576 3.66956C19.6119 3.67722 19.6642 3.69552 19.7114 3.72341C19.7586 3.75131 19.7998 3.78824 19.8328 3.83211C19.8657 3.87598 19.8896 3.92591 19.9032 3.97904C19.9169 4.0321 19.9201 4.08735 19.9124 4.14163C19.9048 4.1959 19.8865 4.24813 19.8586 4.29533C19.8308 4.34253 19.7939 4.38376 19.75 4.41666C19.7062 4.44956 19.6563 4.47349 19.6032 4.48707ZM17.2699 16.8876C17.3058 16.9289 17.3333 16.9769 17.3506 17.0287C17.3679 17.0806 17.3749 17.1354 17.371 17.19C17.3671 17.2445 17.3525 17.2978 17.3281 17.3467C17.3036 17.3956 17.2697 17.4392 17.2283 17.475C17.1528 17.5394 17.0568 17.5749 16.9576 17.5752C16.8368 17.5752 16.72 17.5251 16.6407 17.4291C16.5692 17.3453 16.5335 17.2367 16.5413 17.1268C16.549 17.0169 16.5997 16.9144 16.6824 16.8415C16.724 16.8059 16.7722 16.7789 16.8242 16.762C16.8763 16.745 16.9311 16.7385 16.9857 16.7428C17.0403 16.7471 17.0935 16.7621 17.1422 16.7869C17.191 16.8118 17.2344 16.846 17.2699 16.8876ZM17.8865 4.91651C17.7851 4.91634 17.6872 4.8792 17.6111 4.81206C17.5351 4.74492 17.4861 4.65237 17.4733 4.55172C17.4606 4.45107 17.4849 4.34922 17.5418 4.26522C17.5987 4.18122 17.6842 4.12082 17.7824 4.09533C17.8895 4.06938 18.0026 4.08622 18.0975 4.14229C18.1924 4.19836 18.2617 4.28923 18.2907 4.39558C18.3172 4.50268 18.3006 4.6159 18.2446 4.71093C18.1885 4.80596 18.0975 4.87523 17.9909 4.90386C17.9567 4.91197 17.9217 4.91622 17.8865 4.91651ZM18.3574 18.1502C18.4092 18.2107 18.4426 18.2847 18.4536 18.3636C18.4646 18.4425 18.4527 18.5229 18.4194 18.5953C18.3861 18.6676 18.3328 18.7289 18.2657 18.7719C18.1986 18.8149 18.1207 18.8377 18.041 18.8377C17.9242 18.8377 17.8077 18.7921 17.7242 18.6961C17.5742 18.5211 17.595 18.2545 17.77 18.1085C17.8113 18.0726 17.8592 18.0451 17.9111 18.0278C17.963 18.0104 18.0178 18.0035 18.0723 18.0073C18.1269 18.0112 18.1802 18.0258 18.2291 18.0503C18.278 18.0748 18.3216 18.1088 18.3574 18.1502ZM11.8493 10.5584C11.9013 10.6189 11.9349 10.693 11.946 10.7719C11.9571 10.8509 11.9453 10.9314 11.912 11.0038C11.8786 11.0763 11.8252 11.1376 11.758 11.1805C11.6908 11.2235 11.6126 11.2462 11.5329 11.246C11.4476 11.2462 11.3643 11.2203 11.2942 11.1716C11.2241 11.123 11.1707 11.054 11.1411 10.974C11.1116 10.8939 11.1073 10.8068 11.1289 10.7242C11.1505 10.6417 11.1969 10.5678 11.2619 10.5126C11.3034 10.4769 11.3516 10.4498 11.4036 10.4328C11.4557 10.4158 11.5105 10.4092 11.5651 10.4135C11.6197 10.4178 11.6729 10.4328 11.7216 10.4576C11.7704 10.4825 11.8138 10.5168 11.8493 10.5584ZM9.92435 6.99575C9.81721 7.02319 9.70357 7.00705 9.60831 6.95086C9.51305 6.89468 9.44393 6.80303 9.4161 6.69599C9.40208 6.64318 9.39876 6.5881 9.40631 6.53399C9.41387 6.47987 9.43215 6.42781 9.4601 6.38086C9.48804 6.33391 9.52508 6.29301 9.56903 6.26057C9.61299 6.22812 9.66299 6.20479 9.71609 6.19192C9.82269 6.16421 9.93592 6.17975 10.0311 6.23515C10.1263 6.29056 10.1958 6.38134 10.2243 6.48772C10.2508 6.59481 10.2341 6.708 10.178 6.80298C10.122 6.89796 10.0309 6.96716 9.92435 6.99575ZM12.9325 11.8249C12.9681 11.8665 12.9951 11.9147 13.0121 11.9667C13.0291 12.0187 13.0357 12.0736 13.0314 12.1282C13.0272 12.1828 13.0122 12.236 12.9874 12.2847C12.9626 12.3335 12.9284 12.377 12.8868 12.4125C12.8116 12.4775 12.7155 12.5131 12.6161 12.5127C12.5308 12.513 12.4475 12.487 12.3775 12.4384C12.3074 12.3898 12.254 12.3208 12.2244 12.2409C12.1948 12.1609 12.1905 12.0738 12.2121 11.9913C12.2336 11.9087 12.28 11.8348 12.3449 11.7795C12.3864 11.7438 12.4345 11.7166 12.4866 11.6996C12.5386 11.6825 12.5935 11.6759 12.6481 11.6801C12.7027 11.6843 12.7559 11.6993 12.8047 11.7242C12.8535 11.749 12.8969 11.7832 12.9325 11.8249ZM13.4494 5.64992C13.4634 5.70302 13.4667 5.75836 13.4591 5.81275C13.4516 5.86713 13.4333 5.91948 13.4054 5.96675C13.3775 6.01403 13.3404 6.05529 13.2964 6.08816C13.2525 6.12102 13.2024 6.14483 13.1491 6.1582C13.1157 6.16974 13.0804 6.17537 13.045 6.17481C12.9527 6.17416 12.8632 6.14324 12.7902 6.08681C12.7172 6.03037 12.6648 5.95154 12.6409 5.86241C12.6269 5.80932 12.6236 5.754 12.631 5.69961C12.6384 5.64523 12.6565 5.59283 12.6842 5.54543C12.7401 5.44969 12.8317 5.38007 12.9389 5.35189C13.0461 5.32372 13.1601 5.33929 13.2559 5.39518C13.3516 5.45107 13.4212 5.5427 13.4494 5.64992ZM9.67841 8.02917C9.73036 8.0896 9.76387 8.16369 9.77495 8.24262C9.78602 8.32154 9.77419 8.40199 9.74086 8.47439C9.70754 8.54679 9.65412 8.60809 9.58697 8.651C9.51981 8.69392 9.44174 8.71664 9.36205 8.71647C9.27687 8.71654 9.19372 8.69049 9.1238 8.64183C9.05388 8.59317 9.00056 8.52424 8.97103 8.44434C8.9415 8.36444 8.93717 8.2774 8.95863 8.19497C8.9801 8.11253 9.02632 8.03865 9.09106 7.9833C9.13261 7.94768 9.18077 7.9206 9.2328 7.90362C9.28483 7.88664 9.33969 7.8801 9.39425 7.88436C9.44881 7.88862 9.502 7.9036 9.55076 7.92845C9.59951 7.9533 9.64289 7.98753 9.67841 8.02917ZM10.7661 9.29169C10.9118 9.46674 10.895 9.73328 10.7202 9.87907C10.6411 9.94973 10.5452 9.9832 10.4495 9.97923C10.3329 9.97923 10.2162 9.93336 10.1329 9.83766C10.0972 9.79609 10.0702 9.74791 10.0532 9.69588C10.0362 9.64384 10.0296 9.58897 10.0339 9.53439C10.0381 9.47982 10.0531 9.42662 10.0779 9.37782C10.1027 9.32903 10.1369 9.28561 10.1785 9.25004C10.2198 9.21413 10.2677 9.18671 10.3196 9.16937C10.3715 9.15202 10.4263 9.14508 10.4809 9.14895C10.5355 9.15282 10.5888 9.16742 10.6377 9.19192C10.6866 9.21641 10.7303 9.25031 10.7661 9.29169ZM11.0286 6.27895C11.0146 6.22589 11.0112 6.17057 11.0187 6.1162C11.0262 6.06182 11.0445 6.00948 11.0723 5.96221C11.1002 5.91493 11.1372 5.87365 11.1812 5.84078C11.2251 5.8079 11.2751 5.78407 11.3284 5.77067C11.3814 5.75688 11.4367 5.75371 11.491 5.76134C11.5453 5.76897 11.5976 5.78724 11.6448 5.81512C11.692 5.84299 11.7333 5.87991 11.7662 5.92377C11.7991 5.96763 11.823 6.01755 11.8366 6.07068C11.8951 6.29135 11.7575 6.52044 11.5366 6.57896C11.4295 6.60537 11.3164 6.58875 11.2214 6.53266C11.1264 6.47657 11.0572 6.38549 11.0286 6.27895ZM8.66612 6.88418C8.70331 6.98063 8.70256 7.086 8.66612 7.18121C8.64207 7.24419 8.60414 7.30295 8.54934 7.34981C8.47025 7.41675 8.37431 7.44973 8.27861 7.44973C8.26894 7.44973 8.25927 7.44725 8.2496 7.44651C8.19468 7.44284 8.14102 7.42835 8.09171 7.40389C8.04239 7.37942 7.9984 7.34546 7.96225 7.30394C7.92664 7.26237 7.89956 7.2142 7.88258 7.16216C7.8656 7.11012 7.85904 7.05525 7.86328 7.00068C7.86751 6.9461 7.88246 6.8929 7.90727 6.84411C7.93208 6.79531 7.96627 6.75189 8.00787 6.71632C8.07878 6.65582 8.16357 6.62433 8.2496 6.61838C8.31444 6.61364 8.37949 6.62418 8.43951 6.64916C8.49954 6.67414 8.55287 6.71285 8.59521 6.76219C8.62694 6.79938 8.64951 6.84103 8.66612 6.88418ZM6.58303 7.41676H4.91621C4.80571 7.41676 4.69974 7.37286 4.6216 7.29472C4.54347 7.21658 4.49957 7.1106 4.49957 7.00009C4.49957 6.88958 4.54347 6.7836 4.6216 6.70546C4.69974 6.62732 4.80571 6.58342 4.91621 6.58342H6.58303C6.69353 6.58342 6.7995 6.62732 6.87764 6.70546C6.95578 6.7836 6.99967 6.88958 6.99967 7.00009C6.99967 7.1106 6.95578 7.21658 6.87764 7.29472C6.7995 7.37286 6.69353 7.41676 6.58303 7.41676ZM7.34615 8.43555C7.3765 8.48107 7.39759 8.53212 7.40821 8.58578C7.41883 8.63945 7.41877 8.69469 7.40804 8.74833C7.39731 8.80198 7.37612 8.85299 7.34568 8.89844C7.31524 8.9439 7.27614 8.98291 7.23062 9.01325L5.98057 9.84659C5.93506 9.87706 5.88398 9.89825 5.83026 9.90892C5.77654 9.9196 5.72125 9.91955 5.66755 9.90879C5.61384 9.89804 5.5628 9.87677 5.51734 9.84623C5.47188 9.81568 5.4329 9.77645 5.40265 9.7308C5.3723 9.68528 5.35121 9.63423 5.34059 9.58056C5.32997 9.52689 5.33003 9.47166 5.34075 9.41801C5.35148 9.36436 5.37267 9.31336 5.40312 9.2679C5.43356 9.22245 5.47266 9.18343 5.51818 9.15309L6.76798 8.31976C6.86001 8.25846 6.97262 8.23622 7.08104 8.25793C7.18946 8.27965 7.28482 8.34354 7.34615 8.43555ZM7.34615 5.56438C7.31585 5.60999 7.27685 5.64917 7.23138 5.67968C7.18591 5.71018 7.13487 5.73141 7.08118 5.74214C7.02749 5.75287 6.9722 5.7529 6.9185 5.74223C6.8648 5.73155 6.81373 5.71038 6.76823 5.67992L5.51843 4.84659C5.47291 4.81624 5.43382 4.77723 5.40338 4.73177C5.37294 4.68632 5.35175 4.63531 5.34102 4.58167C5.31935 4.47333 5.34161 4.36082 5.40289 4.26888C5.46418 4.17695 5.55947 4.11314 5.6678 4.09147C5.72144 4.08074 5.77667 4.08068 5.83034 4.0913C5.884 4.10191 5.93505 4.123 5.98057 4.15334L7.23062 4.98668C7.27614 5.01702 7.31524 5.05603 7.34568 5.10149C7.37612 5.14694 7.39731 5.19795 7.40804 5.2516C7.41877 5.30524 7.41883 5.36048 7.40821 5.41415C7.39759 5.46781 7.3765 5.51886 7.34615 5.56438Z" fill="#353086"/>
</g>
</svg>
