<svg width="41" height="40" viewBox="0 0 41 40" fill="none" xmlns="http://www.w3.org/2000/svg">
<g id="Frame" clip-path="url(#clip0_1475_3620)">
<path id="Vector" d="M38.8267 18H36.5V13.8213C36.4993 13.3385 36.3072 12.8756 35.9658 12.5342C35.6244 12.1928 35.1615 12.0007 34.6787 12H33.8333V0H7.16667V1.33333H5.16667V2.66667H3.16667V7.33333H2.32133C1.8385 7.33404 1.37565 7.52615 1.03424 7.86757C0.692822 8.20898 0.500705 8.67184 0.5 9.15467L0.5 38.2793H0.504C0.500667 38.6547 0.617333 39.022 0.852 39.3293C1.01098 39.5386 1.21639 39.7082 1.45205 39.8245C1.6877 39.9409 1.94717 40.001 2.21 40H32.0493C32.8207 40 33.4993 39.48 33.682 38.7913L40.5 20.0993V19.9813C40.5 18.8333 39.796 18 38.8267 18ZM34.6787 13.3333C34.948 13.3333 35.1667 13.552 35.1667 13.8213V18H33.8333V13.3333H34.6787ZM32.5 1.33333V18H8.98733C8.83531 18.0017 8.6842 18.0236 8.538 18.0653C8.526 18.0687 8.512 18.0673 8.5 18.0707V1.33333H32.5ZM7.16667 2.66667V19.7233L7.12467 19.8387L6.5 21.5507V2.66667H7.16667ZM4.5 4H5.16667V25.2067L4.5 27.034V4ZM1.83333 9.15467C1.83333 8.88533 2.05267 8.66667 2.32133 8.66667H3.16667V30.6287L1.83333 34.2653V9.15467ZM32.412 38.3893C32.3906 38.4691 32.3434 38.5395 32.2778 38.5896C32.2122 38.6398 32.1319 38.6669 32.0493 38.6667H2.21C2.15208 38.6672 2.09485 38.6541 2.04295 38.6284C1.99105 38.6027 1.94596 38.5651 1.91133 38.5187C1.86933 38.464 1.80467 38.348 1.82933 38.2467L3.16667 34.58L5.16667 29.0973L7.16667 23.614V23.616L8.45467 20.082L8.5 19.9587L8.60667 19.666L8.624 19.6113C8.64576 19.5316 8.69309 19.4612 8.75873 19.411C8.82437 19.3608 8.90468 19.3335 8.98733 19.3333H38.8267C39.0793 19.3333 39.1447 19.6973 39.1607 19.8793L32.412 38.3893Z" fill="#787486" stroke="#787486" stroke-width="0.2"/>
<path id="Vector_2" d="M12.5007 11.333H28.5007C28.6775 11.333 28.847 11.2628 28.9721 11.1377C29.0971 11.0127 29.1673 10.8432 29.1673 10.6663C29.1673 10.4895 29.0971 10.32 28.9721 10.1949C28.847 10.0699 28.6775 9.99967 28.5007 9.99967H12.5007C12.3238 9.99967 12.1543 10.0699 12.0292 10.1949C11.9042 10.32 11.834 10.4895 11.834 10.6663C11.834 10.8432 11.9042 11.0127 12.0292 11.1377C12.1543 11.2628 12.3238 11.333 12.5007 11.333ZM12.5007 6.66634H19.1673C19.3441 6.66634 19.5137 6.5961 19.6387 6.47108C19.7637 6.34605 19.834 6.17649 19.834 5.99967C19.834 5.82286 19.7637 5.65329 19.6387 5.52827C19.5137 5.40325 19.3441 5.33301 19.1673 5.33301H12.5007C12.3238 5.33301 12.1543 5.40325 12.0292 5.52827C11.9042 5.65329 11.834 5.82286 11.834 5.99967C11.834 6.17649 11.9042 6.34605 12.0292 6.47108C12.1543 6.5961 12.3238 6.66634 12.5007 6.66634ZM12.5007 15.9997H28.5007C28.6775 15.9997 28.847 15.9294 28.9721 15.8044C29.0971 15.6794 29.1673 15.5098 29.1673 15.333C29.1673 15.1562 29.0971 14.9866 28.9721 14.8616C28.847 14.7366 28.6775 14.6663 28.5007 14.6663H12.5007C12.3238 14.6663 12.1543 14.7366 12.0292 14.8616C11.9042 14.9866 11.834 15.1562 11.834 15.333C11.834 15.5098 11.9042 15.6794 12.0292 15.8044C12.1543 15.9294 12.3238 15.9997 12.5007 15.9997Z" fill="#787486" stroke="#787486" stroke-width="0.2"/>
</g>
<defs>
<clipPath id="clip0_1475_3620">
<rect width="40" height="40" fill="white" transform="translate(0.5)"/>
</clipPath>
</defs>
</svg>
