<svg width="20" height="20" viewBox="0 0 20 20" fill="none" xmlns="http://www.w3.org/2000/svg">
<g id="search" clip-path="url(#clip0_1526_3031)">
<path id="Vector" d="M19.7561 18.5773L14.782 13.6032C16.1375 11.9453 16.804 9.8299 16.6435 7.69445C16.4831 5.55901 15.508 3.56693 13.92 2.13025C12.3319 0.693577 10.2525 -0.0777715 8.11167 -0.024245C5.97088 0.0292815 3.93256 0.903588 2.41832 2.41783C0.904076 3.93207 0.0297698 5.97039 -0.0237567 8.11119C-0.0772832 10.252 0.694065 12.3314 2.13074 13.9195C3.56742 15.5075 5.5595 16.4826 7.69494 16.643C9.83038 16.8035 11.9458 16.137 13.6036 14.7815L18.5778 19.7557C18.735 19.9075 18.9455 19.9914 19.164 19.9895C19.3825 19.9876 19.5915 19.9 19.746 19.7455C19.9005 19.591 19.9881 19.382 19.99 19.1635C19.9919 18.945 19.9079 18.7345 19.7561 18.5773ZM8.33364 14.9998C7.0151 14.9998 5.72617 14.6088 4.62984 13.8763C3.53351 13.1437 2.67903 12.1025 2.17444 10.8844C1.66986 9.6662 1.53784 8.32576 1.79507 7.03255C2.05231 5.73934 2.68724 4.55146 3.61959 3.61911C4.55194 2.68676 5.73983 2.05182 7.03304 1.79458C8.32624 1.53735 9.66669 1.66937 10.8849 2.17395C12.103 2.67854 13.1442 3.53302 13.8768 4.62935C14.6093 5.72568 15.0003 7.01461 15.0003 8.33315C14.9983 10.1007 14.2953 11.7952 13.0455 13.045C11.7957 14.2948 10.1011 14.9978 8.33364 14.9998Z" fill="#787486"/>
</g>
<defs>
<clipPath id="clip0_1526_3031">
<rect width="20" height="20" fill="white"/>
</clipPath>
</defs>
</svg>
