<svg width="20" height="20" viewBox="0 0 20 20" fill="none" xmlns="http://www.w3.org/2000/svg">
<g id="Group">
<path id="Vector" d="M19.4743 13.788C19.4743 14.0171 19.2834 14.2006 19.0502 14.2006C18.8169 14.2006 18.6258 14.0171 18.6258 13.788C18.6258 13.5545 18.8169 13.3673 19.0502 13.3673C19.2834 13.3673 19.4743 13.5545 19.4743 13.788ZM19.4743 5.33365V12.1172C19.4743 12.3505 19.2834 12.534 19.0502 12.534C18.8169 12.534 18.6258 12.3505 18.6258 12.1172V8.12739C18.3507 8.69566 17.7597 9.08368 17.0925 9.08368H16.5045V9.50046C16.5045 9.73079 16.315 9.91699 16.0804 9.91699H14.8076C14.8076 10.0275 14.7629 10.1335 14.6834 10.2116C14.6038 10.2898 14.4959 10.3336 14.3834 10.3336C14.2709 10.3336 14.163 10.2898 14.0834 10.2116C14.0038 10.1335 13.9592 10.0275 13.9592 9.91699H12.6866C12.6309 9.91702 12.5757 9.90628 12.5242 9.88536C12.4727 9.86444 12.4259 9.83376 12.3865 9.79508C12.3471 9.7564 12.3159 9.71047 12.2945 9.65992C12.2732 9.60936 12.2622 9.55518 12.2622 9.50046V9.08368H7.59556V9.50046C7.59556 9.55518 7.58459 9.60936 7.56326 9.65992C7.54193 9.71047 7.51067 9.7564 7.47126 9.79508C7.43185 9.83376 7.38507 9.86444 7.33358 9.88536C7.2821 9.90628 7.22692 9.91702 7.17121 9.91699H5.89864C5.89864 10.0275 5.85394 10.1335 5.77439 10.2116C5.69483 10.2898 5.58692 10.3336 5.47441 10.3336C5.3619 10.3336 5.25399 10.2898 5.17443 10.2116C5.09487 10.1335 5.05018 10.0275 5.05018 9.91699H3.77736C3.54284 9.91699 3.35325 9.73079 3.35325 9.50046V9.08368H3.18942C2.52246 9.08368 1.93124 8.69566 1.65608 8.12739V15.3336C1.65608 15.5627 1.84718 15.7502 2.08044 15.7502H7.21816C6.37652 14.4604 6.52748 12.7224 7.67458 11.5958C8.99738 10.2966 11.1505 10.2958 12.4743 11.5958C13.6214 12.7224 13.7723 14.4604 12.9307 15.7502H18.2015C18.4135 15.7502 18.5917 15.596 18.6215 15.3917C18.6526 15.1876 18.8437 15.0354 19.0499 15.0364C19.0668 15.0366 19.0837 15.0356 19.1009 15.0379C19.2153 15.0547 19.313 15.1127 19.3809 15.2003C19.4483 15.2917 19.4783 15.4003 19.4612 15.5127C19.372 16.1211 18.8288 16.5837 18.2012 16.5837H14.5529L15.7742 17.7833C16.0126 18.0178 16.1464 18.3356 16.1464 18.667C16.1464 18.9984 16.0126 19.3162 15.7742 19.5508C15.6561 19.667 15.5157 19.7591 15.3613 19.8218C15.2068 19.8846 15.0412 19.9168 14.874 19.9165C14.7069 19.9167 14.5413 19.8846 14.3869 19.8218C14.2325 19.759 14.0922 19.6669 13.974 19.5508L12.4743 18.0778C12.4349 18.0391 12.4036 17.9932 12.3822 17.9426C12.3609 17.8921 12.3499 17.8379 12.3499 17.7831C12.3499 17.7284 12.3609 17.6742 12.3822 17.6236C12.4036 17.5731 12.4349 17.5271 12.4743 17.4885L12.7742 17.1939L12.1552 16.5857C11.561 17.0416 10.8283 17.2883 10.0743 17.2864C9.30965 17.2864 8.58413 17.039 7.99114 16.5837H2.08044C1.38016 16.5837 0.807617 16.0209 0.807617 15.3339V5.33365C0.807617 5.27836 0.819987 5.22332 0.841949 5.17199C1.0285 4.0843 2.01859 3.25024 3.21189 3.25024H5.47428V2.0004C5.47522 1.66916 5.60962 1.35175 5.84813 1.11755C6.08663 0.883348 6.40984 0.751404 6.7471 0.750553H7.24542C7.33324 0.50714 7.49558 0.296366 7.71017 0.147131C7.92475 -0.00210266 8.18109 -0.0824899 8.44403 -0.0830078H11.8379C12.1008 -0.0825982 12.3572 -0.00225314 12.5718 0.146996C12.7864 0.296245 12.9488 0.50708 13.0365 0.750553H13.535C14.2348 0.750553 14.8076 1.31287 14.8076 2.0004V3.25049H17.0703C18.2613 3.25049 19.2499 4.08132 19.4389 5.16604C19.4619 5.21811 19.4743 5.27439 19.4743 5.33365ZM17.9508 7.45573L18.5317 5.75043L18.6241 5.47869C18.615 5.28324 18.5639 5.09187 18.4744 4.91712C18.2244 4.42521 17.6893 4.0838 17.07 4.0838H3.21189C2.59264 4.0838 2.05772 4.42521 1.80755 4.91712C1.71812 5.09193 1.66712 5.28326 1.65785 5.47869L1.75049 5.75043L2.33111 7.45573C2.33944 7.48003 2.34575 7.50532 2.34904 7.5311C2.37779 7.73019 2.47857 7.91245 2.63294 8.04453C2.78731 8.17661 2.98494 8.24968 3.18967 8.25037H3.35351V7.41705C3.35351 7.18672 3.54309 7.00052 3.77761 7.00052H7.17146C7.22717 7.00049 7.28235 7.01124 7.33383 7.03216C7.38532 7.05307 7.4321 7.08375 7.47151 7.12243C7.51092 7.16112 7.54218 7.20704 7.56351 7.2576C7.58484 7.30815 7.59582 7.36233 7.59582 7.41705V8.25037H12.2625V7.41705C12.2625 7.18672 12.4523 7.00052 12.6868 7.00052H16.0807C16.3152 7.00052 16.5048 7.18672 16.5048 7.41705V8.25037H17.0927C17.5141 8.25037 17.8753 7.94119 17.9334 7.5311C17.9364 7.50532 17.9427 7.48028 17.9508 7.45573ZM15.6561 8.66715V7.83383H13.1107V9.08368H13.9592C13.9592 8.85335 14.149 8.66715 14.3835 8.66715C14.618 8.66715 14.8076 8.85335 14.8076 9.08368H15.6561V8.66715ZM6.7471 8.66715V7.83383H4.20172V9.08368H5.05018C5.05018 8.85335 5.23976 8.66715 5.47428 8.66715C5.7088 8.66715 5.89864 8.85335 5.89864 9.08368H6.7471V8.66715ZM11.8379 0.750305H8.44403C8.3333 0.752958 8.22803 0.79802 8.15067 0.875869C8.07332 0.953718 8.03002 1.05818 8.03002 1.16696C8.03002 1.27574 8.07332 1.3802 8.15067 1.45805C8.22803 1.5359 8.3333 1.58096 8.44403 1.58362H11.8379C12.0719 1.58362 12.2622 1.39692 12.2622 1.16684C12.2622 0.937001 12.0719 0.750305 11.8379 0.750305ZM6.32274 3.25049H13.9592V2.0004C13.9592 1.7713 13.7683 1.58387 13.535 1.58387H13.0365C12.9487 1.82729 12.7864 2.03807 12.5718 2.18728C12.3572 2.33648 12.1008 2.41679 11.8379 2.41718H8.44403C8.18111 2.41671 7.92478 2.33638 7.71019 2.18719C7.4956 2.03799 7.33325 1.82725 7.24542 1.58387H6.7471C6.51384 1.58387 6.32274 1.7713 6.32274 2.0004V3.25049ZM8.30796 15.7504C8.48416 15.9175 8.68006 16.0579 8.89135 16.1672C9.25618 16.3557 9.66234 16.4538 10.0746 16.4531C10.4941 16.4531 10.8973 16.3537 11.258 16.1672C11.4716 16.0561 11.668 15.9157 11.8414 15.7504C11.8523 15.7403 11.8641 15.7311 11.8747 15.7207C12.8671 14.7458 12.8671 13.16 11.8747 12.1851C11.6385 11.9528 11.3579 11.7686 11.0489 11.6431C10.74 11.5176 10.4089 11.4533 10.0746 11.4539C9.74033 11.4534 9.40929 11.5177 9.10044 11.6432C8.7916 11.7686 8.51104 11.9528 8.27489 12.1851C7.28253 13.16 7.28253 14.7458 8.27489 15.7207C8.28524 15.7311 8.2971 15.7403 8.30796 15.7504ZM15.1744 18.3724L13.9743 17.1937L13.6752 17.4877L13.6731 17.4897L13.3742 17.7835L14.5741 18.9617C14.6545 19.0358 14.7611 19.0763 14.8714 19.0746C14.9816 19.0729 15.0869 19.0291 15.1649 18.9526C15.2429 18.876 15.2875 18.7726 15.2893 18.6644C15.291 18.5561 15.2498 18.4513 15.1744 18.3724ZM13.3954 16.5837H13.3528L13.374 16.6048L13.3954 16.5837ZM8.01992 17.4171C7.78666 17.4171 7.59556 17.6047 7.59556 17.8338C7.59556 18.0629 7.78666 18.2504 8.01992 18.2504C8.25318 18.2504 8.44403 18.0629 8.44403 17.8338C8.44403 17.6047 8.25293 17.4171 8.01992 17.4171ZM6.32274 17.4171C6.08949 17.4171 5.89864 17.6047 5.89864 17.8338C5.89864 18.0629 6.08949 18.2504 6.32274 18.2504C6.556 18.2504 6.7471 18.0629 6.7471 17.8338C6.7471 17.6047 6.556 17.4171 6.32274 17.4171ZM4.62582 17.4171C4.39256 17.4171 4.20172 17.6047 4.20172 17.8338C4.20172 18.0629 4.39256 18.2504 4.62582 18.2504C4.85908 18.2504 5.05018 18.0629 5.05018 17.8338C5.05018 17.6047 4.85908 17.4171 4.62582 17.4171ZM7.59556 19.0837C7.36231 19.0837 7.17121 19.2714 7.17121 19.5005C7.17121 19.7296 7.36231 19.917 7.59556 19.917C7.82882 19.917 8.01992 19.7296 8.01992 19.5005C8.01992 19.2714 7.82882 19.0837 7.59556 19.0837ZM5.89864 19.0837C5.66538 19.0837 5.47428 19.2714 5.47428 19.5005C5.47428 19.7296 5.66538 19.917 5.89864 19.917C6.1319 19.917 6.32274 19.7296 6.32274 19.5005C6.32274 19.2714 6.1319 19.0837 5.89864 19.0837ZM9.29249 19.0837C9.05923 19.0837 8.86838 19.2714 8.86838 19.5005C8.86838 19.7296 9.05923 19.917 9.29249 19.917C9.52575 19.917 9.71684 19.7296 9.71684 19.5005C9.71684 19.2714 9.52575 19.0837 9.29249 19.0837ZM10.9894 19.0837C10.7562 19.0837 10.5653 19.2714 10.5653 19.5005C10.5653 19.7296 10.7562 19.917 10.9894 19.917C11.2227 19.917 11.4138 19.7296 11.4138 19.5005C11.4138 19.2714 11.2227 19.0837 10.9894 19.0837Z" fill="#353086"/>
</g>
</svg>
