<svg width="14" height="14" viewBox="0 0 14 14" fill="none" xmlns="http://www.w3.org/2000/svg">
<g id="state=reports">
<path id="Vector" d="M11.0833 0H5.83333C4.22508 0 2.91667 1.30842 2.91667 2.91667V3.5H2.625C1.17775 3.5 0 4.67775 0 6.125V11.9583C0 13.0836 0.91525 13.9994 2.04108 14H11.0833C12.6916 14 14 12.6916 14 11.0833V2.91667C14 1.30842 12.6916 0 11.0833 0ZM2.91667 11.9583C2.91667 12.4407 2.52408 12.8333 2.04167 12.8333C1.55925 12.8333 1.16667 12.4407 1.16667 11.9583V6.125C1.16667 5.32117 1.82117 4.66667 2.625 4.66667H2.91667V11.9583ZM12.8333 11.0833C12.8333 12.0482 12.0482 12.8333 11.0833 12.8333H3.88617C4.01217 12.5679 4.08333 12.2716 4.08333 11.9583V2.91667C4.08333 1.95183 4.8685 1.16667 5.83333 1.16667H11.0833C12.0482 1.16667 12.8333 1.95183 12.8333 2.91667V11.0833ZM11.6667 4.08333C11.6667 4.40533 11.4053 4.66667 11.0833 4.66667H9.33333C9.01133 4.66667 8.75 4.40533 8.75 4.08333C8.75 3.76133 9.01133 3.5 9.33333 3.5H11.0833C11.4053 3.5 11.6667 3.76133 11.6667 4.08333ZM11.6667 6.41667C11.6667 6.73867 11.4053 7 11.0833 7H5.83333C5.51133 7 5.25 6.73867 5.25 6.41667C5.25 6.09467 5.51133 5.83333 5.83333 5.83333H11.0833C11.4053 5.83333 11.6667 6.09467 11.6667 6.41667ZM11.6667 8.75C11.6667 9.072 11.4053 9.33333 11.0833 9.33333H5.83333C5.51133 9.33333 5.25 9.072 5.25 8.75C5.25 8.428 5.51133 8.16667 5.83333 8.16667H11.0833C11.4053 8.16667 11.6667 8.428 11.6667 8.75ZM11.6667 11.0833C11.6667 11.4053 11.4053 11.6667 11.0833 11.6667H5.83333C5.51133 11.6667 5.25 11.4053 5.25 11.0833C5.25 10.7613 5.51133 10.5 5.83333 10.5H11.0833C11.4053 10.5 11.6667 10.7613 11.6667 11.0833ZM5.25 4.08333V2.91667C5.25 2.59467 5.51133 2.33333 5.83333 2.33333H7C7.322 2.33333 7.58333 2.59467 7.58333 2.91667V4.08333C7.58333 4.40533 7.322 4.66667 7 4.66667H5.83333C5.51133 4.66667 5.25 4.40533 5.25 4.08333Z" fill="#64748B"/>
</g>
</svg>
