<svg width="20" height="22" viewBox="0 0 20 22" fill="none" xmlns="http://www.w3.org/2000/svg">
<g id="state=no-ntfcn">
<path id="Vector" d="M3.158 10.491C3.085 11.887 3.169 13.373 1.922 14.308C1.63531 14.5226 1.40266 14.8011 1.24259 15.1214C1.08253 15.4417 0.999458 15.795 1 16.153C1 17.15 1.782 18 2.8 18H17.2C18.218 18 19 17.15 19 16.153C19 15.427 18.658 14.743 18.078 14.308C16.831 13.373 16.915 11.887 16.842 10.491C16.752 8.73712 15.9919 7.08474 14.7186 5.87514C13.4454 4.66553 11.7562 3.99109 10 3.99109C8.24378 3.99109 6.55462 4.66553 5.28136 5.87514C4.0081 7.08474 3.24799 8.73712 3.158 10.491Z" stroke="#64748B" stroke-width="1.8" stroke-linecap="round" stroke-linejoin="round"/>
<path id="Vector_2" d="M13 18C13 18.7956 12.6839 19.5587 12.1213 20.1213C11.5587 20.6839 10.7956 21 10 21C9.20435 21 8.44129 20.6839 7.87868 20.1213C7.31607 19.5587 7 18.7956 7 18M8.5 2.125C8.5 2.953 9.172 4 10 4C10.828 4 11.5 2.953 11.5 2.125C11.5 1.297 10.828 1 10 1C9.172 1 8.5 1.297 8.5 2.125Z" stroke="#64748B" stroke-width="1.8" stroke-linecap="round" stroke-linejoin="round"/>
</g>
</svg>
