<svg width="23" height="19" viewBox="0 0 23 19" fill="none" xmlns="http://www.w3.org/2000/svg">
<g id="state=clients">
<path id="Vector" d="M6.22692 14.7584C8.82473 15.7828 13.3944 15.7242 15.8044 14.7584C17.1815 14.9633 19.4977 14.9047 20.5305 14.0852C20.8435 13.8511 21 13.5584 21 13.2072C21 11.8316 20.1862 10.6316 18.903 10.0462C19.2786 9.66576 19.4977 9.13894 19.4977 8.58285C19.4977 6.24141 16.0235 5.62678 15.0845 7.76334C14.6463 7.44139 14.1455 7.14871 13.6135 6.94384C14.4272 6.27067 14.928 5.30483 14.928 4.19265C14.928 2.14389 13.144 0.504883 10.9844 0.504883C8.82473 0.504883 7.04069 2.17316 7.04069 4.19265C7.04069 5.27556 7.54147 6.24141 8.35524 6.94384C7.82316 7.14871 7.32238 7.44139 6.88419 7.76334C6.53991 6.97311 5.69484 6.44628 4.75587 6.44628C3.50391 6.44628 2.47105 7.41213 2.47105 8.58285C2.47105 9.13894 2.69014 9.63649 3.06573 10.0462C1.81377 10.6609 1 11.8901 1 13.2365C1 13.5584 1.15649 13.8511 1.46948 14.1145C2.50235 14.9047 4.81847 14.9633 6.22692 14.7584ZM20.4053 13.2365C20.4053 13.3828 20.3114 13.5291 20.1549 13.6462C19.5915 14.0852 18.1518 14.3486 16.7746 14.2608C17.3693 13.8511 17.7136 13.3535 17.7136 12.7389C17.7136 12.0365 17.5884 11.3926 17.3693 10.7487C17.7136 10.7194 18.0579 10.6316 18.3709 10.4853C19.5915 10.895 20.4053 12.0072 20.4053 13.2365ZM17.2441 7.06091C18.1518 7.06091 18.903 7.76334 18.903 8.61211C18.903 9.54869 18.0266 10.2511 17.1189 10.1633C16.7746 9.43162 16.2739 8.75845 15.6479 8.20236C15.8357 7.55847 16.493 7.06091 17.2441 7.06091ZM7.69797 4.25118C7.69797 2.52437 9.20031 1.14878 11.0156 1.14878C12.831 1.14878 14.3333 2.55364 14.3333 4.25118C14.3333 5.97799 12.831 7.35359 11.0156 7.35359C9.16901 7.35359 7.69797 5.94873 7.69797 4.25118ZM11.0156 7.93895C11.7668 7.93895 12.4554 7.73407 13.0501 7.41213C15.4601 8.23163 17.0563 10.3682 17.0563 12.7389C17.0563 15.6364 4.91236 15.6364 4.91236 12.7389C4.91236 10.3389 6.50861 8.20236 8.91862 7.41213C9.5759 7.73407 10.2645 7.93895 11.0156 7.93895ZM4.78717 7.06091C5.53834 7.06091 6.19562 7.55847 6.38341 8.23163C5.75743 8.78772 5.25665 9.43162 4.91236 10.1633C4.03599 10.2511 3.09703 9.57796 3.09703 8.61211C3.12833 7.76334 3.8482 7.06091 4.78717 7.06091ZM3.66041 10.4853C3.9734 10.6609 4.31768 10.7487 4.66197 10.7487C4.44288 11.3633 4.31768 12.0365 4.31768 12.7389C4.31768 13.1779 4.50548 13.7633 5.25665 14.2608C3.8482 14.3486 2.43975 14.0852 1.84507 13.6462C1.71987 13.5291 1.62598 13.3828 1.62598 13.2365C1.62598 12.0072 2.43975 10.9243 3.66041 10.4853Z" fill="#64748B" stroke="#64748B" stroke-width="0.5"/>
</g>
</svg>
