<svg width="14" height="16" viewBox="0 0 14 16" fill="none" xmlns="http://www.w3.org/2000/svg">
<g id="state=support">
<path id="Vector" d="M4.35325 5.93747C4.35325 6.28184 4.44824 6.60809 4.61743 6.89809C4.25382 7.2906 4.02749 7.77747 3.99707 8.3081C3.29879 7.6906 2.86914 6.85559 2.86914 5.93809C2.86914 3.80621 5.18584 2.1212 7.81049 2.57495C9.35545 2.84245 10.6073 3.89058 10.9368 5.18996C11.0362 5.58246 11.0548 5.96684 11.0043 6.33434C10.9613 6.64559 10.637 6.87559 10.2645 6.87559H10.2311C9.79178 6.87559 9.48308 6.54622 9.53132 6.17872C9.56397 5.93184 9.5469 5.67246 9.47195 5.40809C9.25082 4.62496 8.49244 3.99058 7.56116 3.80996C5.86482 3.48183 4.35251 4.56434 4.35251 5.93809L4.35325 5.93747ZM1.46666 5.12809C1.66998 4.13246 2.24804 3.22496 3.14445 2.51683C4.27905 1.6212 5.76465 1.1787 7.32222 1.25995C10.2556 1.41995 12.5493 3.58433 12.5151 6.17559C12.501 7.2606 11.4221 8.12435 10.1346 8.12435H8.34922C8.16816 7.60622 7.60568 7.22497 6.9319 7.22497C6.11193 7.22497 5.44779 7.78435 5.44779 8.47498C5.44779 9.1656 6.11193 9.72498 6.9319 9.72498C7.33112 9.72498 7.69251 9.5906 7.9589 9.37435H10.1346C12.2265 9.37435 13.9696 7.97122 13.9992 6.20997C14.0541 2.94683 11.1438 0.215569 7.41794 0.0130686C5.44111 -0.0950568 3.56593 0.47057 2.13006 1.60557C1.01772 2.4837 0.277886 3.64621 0.011488 4.89684C-0.069396 5.27684 0.287533 5.62559 0.745381 5.62559C1.09563 5.62559 1.40804 5.41934 1.46666 5.12809ZM6.95045 10.625C4.20855 10.625 1.8362 12.0575 1.0474 14.1887C0.924958 14.5181 1.14386 14.8687 1.53493 14.9719C1.92525 15.0712 2.34154 14.89 2.46398 14.5612C3.04946 12.98 4.89347 11.875 6.94971 11.875C9.00594 11.875 10.8507 12.98 11.4354 14.5612C11.5349 14.8288 11.8272 15 12.1441 15C12.2176 15 12.291 14.9906 12.3652 14.9719C12.7563 14.8687 12.9745 14.5181 12.8528 14.1887C12.064 12.0575 9.69234 10.625 6.95045 10.625Z" fill="#64748B"/>
</g>
</svg>
