<svg width="16" height="16" viewBox="0 0 16 16" fill="none" xmlns="http://www.w3.org/2000/svg">
<g id="state=dashboard">
<path id="Vector" d="M6.3958 5.6667H2.0208C1.4579 5.6667 1 5.2088 1 4.6458V2.0208C1 1.4579 1.4579 1 2.0208 1H6.3958C6.9588 1 7.4167 1.4579 7.4167 2.0208V4.6458C7.4167 5.2088 6.9588 5.6667 6.3958 5.6667ZM2.0208 1.875C1.98214 1.87503 1.94507 1.8904 1.91773 1.91773C1.8904 1.94507 1.87503 1.98214 1.875 2.0208V4.6458C1.87501 4.68447 1.89037 4.72156 1.9177 4.74892C1.94504 4.77628 1.98212 4.79167 2.0208 4.7917H6.3958C6.43449 4.79169 6.47159 4.77631 6.49895 4.74895C6.52631 4.72159 6.54169 4.68449 6.5417 4.6458V2.0208C6.54167 1.98212 6.52628 1.94504 6.49892 1.9177C6.47156 1.89037 6.43447 1.87501 6.3958 1.875H2.0208ZM6.3958 15H2.0208C1.4579 15 1 14.5421 1 13.9792V7.8542C1 7.2912 1.4579 6.8333 2.0208 6.8333H6.3958C6.9588 6.8333 7.4167 7.2912 7.4167 7.8542V13.9792C7.4167 14.5421 6.9588 15 6.3958 15ZM2.0208 7.7083C1.98212 7.70833 1.94504 7.72372 1.9177 7.75108C1.89037 7.77844 1.87501 7.81553 1.875 7.8542V13.9792C1.87503 14.0179 1.8904 14.0549 1.91773 14.0823C1.94507 14.1096 1.98214 14.125 2.0208 14.125H6.3958C6.43447 14.125 6.47156 14.1096 6.49892 14.0823C6.52628 14.055 6.54167 14.0179 6.5417 13.9792V7.8542C6.54169 7.81551 6.52631 7.77841 6.49895 7.75105C6.47159 7.72369 6.43449 7.70831 6.3958 7.7083H2.0208ZM13.9792 15H9.6042C9.04119 15 8.5833 14.5421 8.5833 13.9792V11.3542C8.5833 10.7912 9.04119 10.3333 9.6042 10.3333H13.9792C14.5421 10.3333 15 10.7912 15 11.3542V13.9792C15 14.5421 14.5421 15 13.9792 15ZM9.6042 11.2083C9.56551 11.2083 9.52841 11.2237 9.50105 11.251C9.47369 11.2784 9.45831 11.3155 9.4583 11.3542V13.9792C9.45833 14.0179 9.47372 14.055 9.50108 14.0823C9.52844 14.1096 9.56553 14.125 9.6042 14.125H13.9792C14.0179 14.125 14.0549 14.1096 14.0823 14.0823C14.1096 14.0549 14.125 14.0179 14.125 13.9792V11.3542C14.125 11.3155 14.1096 11.2784 14.0823 11.2511C14.055 11.2237 14.0179 11.2083 13.9792 11.2083H9.6042ZM13.9792 9.1667H9.6042C9.04119 9.1667 8.5833 8.7088 8.5833 8.1458V2.0208C8.5833 1.4579 9.04119 1 9.6042 1H13.9792C14.5421 1 15 1.4579 15 2.0208V8.1458C15 8.7088 14.5421 9.1667 13.9792 9.1667ZM9.6042 1.875C9.56553 1.87501 9.52844 1.89037 9.50108 1.9177C9.47372 1.94504 9.45833 1.98212 9.4583 2.0208V8.1458C9.45831 8.18449 9.47369 8.22159 9.50105 8.24895C9.52841 8.27631 9.56551 8.29169 9.6042 8.2917H13.9792C14.0179 8.29167 14.055 8.27628 14.0823 8.24892C14.1096 8.22156 14.125 8.18447 14.125 8.1458V2.0208C14.125 1.98214 14.1096 1.94507 14.0823 1.91773C14.0549 1.8904 14.0179 1.87503 13.9792 1.875H9.6042Z" fill="#64748B" stroke="#64748B" stroke-width="0.5"/>
</g>
</svg>
