<svg width="14" height="14" viewBox="0 0 14 14" fill="none" xmlns="http://www.w3.org/2000/svg">
<g id="Group 654">
<path id="Vector" d="M7.00013 4.67285C6.48721 4.67285 5.9858 4.8097 5.55932 5.06609C5.13284 5.32248 4.80044 5.6869 4.60415 6.11326C4.40786 6.53962 4.3565 7.00877 4.45657 7.4614C4.55664 7.91402 4.80363 8.32978 5.16633 8.6561C5.52902 8.98242 5.99112 9.20465 6.49419 9.29468C6.99725 9.38472 7.5187 9.33851 7.99258 9.1619C8.46646 8.9853 8.87149 8.68623 9.15646 8.30252C9.44142 7.9188 9.59352 7.46767 9.59352 7.00619C9.59352 6.38735 9.32029 5.79385 8.83394 5.35627C8.34758 4.91868 7.68794 4.67285 7.00013 4.67285ZM7.00013 8.17285C6.74367 8.17285 6.49297 8.10443 6.27973 7.97623C6.06649 7.84804 5.90028 7.66583 5.80214 7.45265C5.704 7.23947 5.67832 7.00489 5.72835 6.77858C5.77838 6.55227 5.90188 6.34439 6.08323 6.18123C6.26458 6.01807 6.49562 5.90695 6.74716 5.86194C6.99869 5.81692 7.25942 5.84002 7.49636 5.92833C7.7333 6.01663 7.93581 6.16616 8.07829 6.35802C8.22078 6.54988 8.29683 6.77544 8.29683 7.00619C8.29683 7.3156 8.16021 7.61235 7.91703 7.83114C7.67386 8.04994 7.34404 8.17285 7.00013 8.17285Z" fill="#64748B"/>
<path id="Vector_2" d="M13.0257 7.8222L12.7379 7.67825C12.8675 7.06668 12.8675 6.43975 12.7379 5.82819L13.0257 5.68424C13.2471 5.57347 13.4412 5.42597 13.5968 5.25015C13.7525 5.07434 13.8666 4.87366 13.9329 4.65957C13.9991 4.44548 14.0161 4.22218 13.9828 4.0024C13.9495 3.78263 13.8666 3.57069 13.7389 3.3787C13.6112 3.1867 13.4411 3.01839 13.2384 2.8834C13.0357 2.74841 12.8044 2.64936 12.5575 2.59192C12.3107 2.53448 12.0532 2.51978 11.7998 2.54864C11.5464 2.5775 11.3021 2.64937 11.0807 2.76014L10.7922 2.90465C10.2473 2.50086 9.62105 2.18783 8.94504 1.98131V1.69284C8.94504 1.24542 8.74012 0.816335 8.37535 0.499964C8.01059 0.183594 7.51586 0.00585938 7 0.00585938C6.48414 0.00585938 5.98941 0.183594 5.62465 0.499964C5.25988 0.816335 5.05496 1.24542 5.05496 1.69284V1.98131C4.37898 2.18857 3.75298 2.50237 3.20846 2.9069L2.91865 2.76126C2.47157 2.53755 1.94035 2.47704 1.44183 2.59305C0.943318 2.70905 0.518353 2.99206 0.260424 3.37982C0.00249555 3.76758 -0.0672687 4.22833 0.066479 4.6607C0.200227 5.09307 0.52653 5.46165 0.973607 5.68536L1.26147 5.82932C1.13188 6.44088 1.13188 7.06781 1.26147 7.67937L0.973607 7.82333C0.52653 8.04703 0.200227 8.41562 0.066479 8.84799C-0.0672687 9.28036 0.00249555 9.74111 0.260424 10.1289C0.518353 10.5166 0.943318 10.7996 1.44183 10.9156C1.94035 11.0316 2.47157 10.9711 2.91865 10.7474L3.20717 10.6029C3.75227 11.0068 4.37872 11.3198 5.05496 11.5262V11.8147C5.05496 12.2621 5.25988 12.6912 5.62465 13.0076C5.98941 13.324 6.48414 13.5017 7 13.5017C7.51586 13.5017 8.01059 13.324 8.37535 13.0076C8.74012 12.6912 8.94504 12.2621 8.94504 11.8147V11.5262C9.62102 11.319 10.247 11.0052 10.7915 10.6007L11.0814 10.7457C11.5284 10.9694 12.0597 11.03 12.5582 10.914C13.0567 10.7979 13.4816 10.5149 13.7396 10.1272C13.9975 9.73942 14.0673 9.27867 13.9335 8.8463C13.7998 8.41393 13.4735 8.04535 13.0264 7.82164L13.0257 7.8222ZM11.3738 5.69886C11.5933 6.38887 11.5933 7.11757 11.3738 7.80758C11.3354 7.92768 11.3442 8.05542 11.3986 8.17074C11.4531 8.28606 11.5501 8.38242 11.6746 8.4447L12.3774 8.79671C12.5264 8.87128 12.6351 8.99413 12.6797 9.13824C12.7243 9.28235 12.701 9.43591 12.615 9.56513C12.529 9.69436 12.3874 9.78868 12.2212 9.82732C12.0551 9.86597 11.878 9.84579 11.7291 9.77123L11.0249 9.41809C10.9004 9.35552 10.7554 9.33068 10.6128 9.34748C10.4701 9.36427 10.338 9.42176 10.2372 9.51087C9.66012 10.0218 8.9331 10.3864 8.13461 10.5652C7.99524 10.5963 7.87174 10.6667 7.78359 10.7654C7.69544 10.864 7.64763 10.9853 7.6477 11.1101V11.8147C7.6477 11.9639 7.57939 12.1069 7.4578 12.2123C7.33621 12.3178 7.1713 12.377 6.99935 12.377C6.8274 12.377 6.66249 12.3178 6.5409 12.2123C6.41931 12.1069 6.351 11.9639 6.351 11.8147V11.1107C6.35108 10.9859 6.30327 10.8646 6.21511 10.7659C6.12696 10.6673 6.00347 10.5969 5.86409 10.5658C5.06556 10.3862 4.33875 10.0209 3.76215 9.50918C3.66135 9.42007 3.52922 9.36259 3.3866 9.34579C3.24397 9.32899 3.09896 9.35383 2.97441 9.4164L2.2716 9.76898C2.19784 9.80648 2.11625 9.83096 2.03153 9.84101C1.94682 9.85106 1.86065 9.84647 1.77798 9.82751C1.69532 9.80856 1.61779 9.77561 1.54987 9.73056C1.48195 9.68552 1.42497 9.62926 1.38222 9.56504C1.33947 9.50081 1.31178 9.42989 1.30076 9.35635C1.28974 9.28281 1.2956 9.2081 1.318 9.13653C1.34041 9.06496 1.37891 8.99794 1.4313 8.93933C1.48368 8.88072 1.54892 8.83168 1.62325 8.79503L2.32606 8.44301C2.45051 8.38073 2.54758 8.28437 2.60204 8.16905C2.65649 8.05373 2.66523 7.92599 2.62689 7.80589C2.40734 7.11588 2.40734 6.38718 2.62689 5.69717C2.66454 5.57733 2.65538 5.45005 2.60084 5.33519C2.5463 5.22034 2.44945 5.12439 2.32541 5.0623L1.6226 4.71029C1.47361 4.63572 1.36487 4.51287 1.3203 4.36876C1.27574 4.22465 1.29901 4.07109 1.38498 3.94187C1.47096 3.81264 1.6126 3.71832 1.77875 3.67967C1.94491 3.64102 2.12195 3.6612 2.27095 3.73577L2.97506 4.08891C3.09927 4.15162 3.24398 4.17676 3.38645 4.16037C3.52892 4.14398 3.66108 4.087 3.76215 3.99838C4.33924 3.48742 5.06625 3.12285 5.86474 2.94402C6.00455 2.91284 6.12836 2.8421 6.21656 2.74299C6.30476 2.64388 6.3523 2.52207 6.35165 2.39687V1.69284C6.35165 1.5437 6.41996 1.40067 6.54155 1.29521C6.66314 1.18976 6.82805 1.13051 7 1.13051C7.17195 1.13051 7.33686 1.18976 7.45845 1.29521C7.58004 1.40067 7.64835 1.5437 7.64835 1.69284V2.39687C7.64828 2.52169 7.69608 2.64297 7.78424 2.74162C7.87239 2.84028 7.99588 2.91069 8.13526 2.94177C8.93403 3.12124 9.66108 3.4866 10.2378 3.99838C10.3387 4.08749 10.4708 4.14497 10.6134 4.16177C10.756 4.17857 10.901 4.15373 11.0256 4.09116L11.7284 3.73858C11.8022 3.70108 11.8838 3.6766 11.9685 3.66655C12.0532 3.65651 12.1394 3.66109 12.222 3.68005C12.3047 3.699 12.3822 3.73195 12.4501 3.777C12.5181 3.82205 12.575 3.8783 12.6178 3.94252C12.6605 4.00675 12.6882 4.07767 12.6992 4.15121C12.7103 4.22475 12.7044 4.29946 12.682 4.37103C12.6596 4.4426 12.6211 4.50962 12.5687 4.56823C12.5163 4.62684 12.4511 4.67588 12.3767 4.71253L11.6739 5.06455C11.5501 5.1268 11.4536 5.22283 11.3993 5.33767C11.345 5.45251 11.336 5.5797 11.3738 5.69942V5.69886Z" fill="#64748B"/>
</g>
</svg>
