<svg width="20" height="17" viewBox="0 0 20 17" fill="none" xmlns="http://www.w3.org/2000/svg">
<path id="Vector" d="M3.158 7.99101C3.085 9.38701 3.169 10.873 1.922 11.808C1.63531 12.0225 1.40266 12.3011 1.24259 12.6214C1.08253 12.9417 0.999458 13.2949 1 13.653C1 14.65 1.782 15.5 2.8 15.5H17.2C18.218 15.5 19 14.65 19 13.653C19 12.927 18.658 12.243 18.078 11.808C16.831 10.873 16.915 9.38701 16.842 7.99101C16.752 6.23709 15.9919 4.58471 14.7186 3.3751C13.4454 2.1655 11.7562 1.49106 10 1.49106C8.24378 1.49106 6.55462 2.1655 5.28136 3.3751C4.0081 4.58471 3.24799 6.23709 3.158 7.99101Z" stroke="#64748B" stroke-width="1.8" stroke-linecap="round" stroke-linejoin="round"/>
</svg>
